<svg width="1234" height="692" viewBox="0 0 1234 692" fill="none" xmlns="http://www.w3.org/2000/svg">
<path d="M855.161 484.366L853.641 480.052L851.242 479.812V477.055L848.682 474.259L846.563 472.182H843.524V475.098L840.844 477.775L836.685 477.175V474.459L834.885 472.901V469.425L831.166 468.946L826.887 466.949L822.808 467.428L818.769 466.829L816.489 469.545L815.369 473.3L812.69 476.017L813.77 479.692L812.33 484.006L808.731 487.562V494.233L803.732 497.709V501.624L801.572 498.668V495.312L799.053 492.795L796.693 493.874L796.093 496.99L789.775 499.387H786.775L785.576 502.942L783.656 505.818L779.537 506.098L774.978 501.504L774.498 491.996L775.058 486.244V480.891L775.778 476.137V471.463L772.458 470.025L770.059 469.186L769.699 466.949L768.619 464.352L766.42 462.155V459.598L767.899 458.12L768.339 454.604L766.26 452.527H763.5L760.501 451.089V448.333L761.701 447.134L760.381 445.816L759.301 441.661L756.942 437.387L754.062 435.349L750.863 436.308L747.743 436.548V432.832L750.303 432.113V429.677L747.623 427L746.624 429.117L744.984 430.755L742.744 430.236L740.225 432.753L737.626 433.711L736.106 437.147V440.662L737.426 444.418L736.346 447.534V450.29L739.665 453.606L741.745 455.683L740.785 458.439L739.465 460.717L741.865 463.153L739.545 465.51L737.826 466.749V471.782L735.826 473.021L735.066 476.456L731.707 477.814L732.547 482.409L731.147 483.807L730.547 488.041L731.427 491.836L733.346 492.715L736.546 495.911L737.826 494.593L740.865 495.751V499.107L741.945 501.943L739.825 501.664L738.385 504.26L737.226 506.458L737.905 508.255H740.985L742.425 511.331L743.464 514.088L741.745 515.805L739.905 518.682V521.159L738.985 523.276H736.146L733.786 520.959H730.547L729.307 518.762L726.348 517.443L725.668 515.406L723.189 514.847L719.869 516.964L718.989 520.719L720.749 524.634L718.15 528.429L713.99 532.584L711.151 536.579L710.191 540.733L708.712 544.249L711.391 546.925L708.792 548.763L705.072 546.246L703.233 541.932L700.073 538.776L697.154 540.294L695.834 544.409L691.035 546.166L687.236 545.487L683.197 546.486L683.117 552.159L680.877 554.396V559.789L683.557 562.465L685.396 566.82V569.297L682.437 570.815L681.037 574.29H678.318L677.558 577.885L676.238 580.922L678.318 583.958L678.438 587.034L676.918 588.112V592.547L677.678 595.063L676.358 597.46L676.798 600.496L671.239 600.816V603.213L668.84 602.773L668 605.17L671.559 607.447L676.998 612.88L679.558 614.398H682.997L685.876 616.556L690.195 617.115L693.755 620.551L696.194 621.709H700.353L702.073 619.991L705.672 623.587L713.75 615.477L716.83 617.514L715.83 619.712L719.429 621.429L721.589 623.427L726.308 624.865L728.467 627.022L730.907 628.301L733.626 631.017L739.785 629.739L744.944 634.612H747.943V637.329L750.103 640.764H755.542L756.542 644.2L760.861 641.763H764.02V636.17L768.459 631.736L773.618 625.584L776.178 618.993L782.976 612.201L790.655 602.973L791.814 589.351L794.534 580.322L790.375 579.044L786.375 560.268L787.815 557.552L789.815 555.554L786.495 553.277L783.336 552.279L782.216 547.125L788.215 542.691H791.254V538.816L794.094 537.537L798.253 538.936L802.572 537.378V533.663L805.571 531.505L807.131 533.223H812.01L814.889 531.226L816.689 533.023L822.608 534.222L825.047 531.785L827.647 533.223L831.446 529.428H834.365V521.918L837.805 520.2L839.964 515.766L843.564 516.604L845.283 518.322L841.124 522.197L844.563 522.477L847.443 520.919L851.722 522.038L853.441 518.762L856.441 516.884L857.161 513.169L855.801 511.811V509.454L852.722 510.732L847.203 505.219L848.722 501.304L847.003 499.586L848.442 496.271L847.083 494.912L850.362 491.637L853.441 491.836L855.241 493.634H857.601L859.96 491.876L860.6 489.759L855.161 484.366Z" fill="#9874FE" stroke="white" stroke-width="2"/>
</svg>
