<svg width="1234" height="692" viewBox="0 0 1234 692" fill="none" xmlns="http://www.w3.org/2000/svg">
<path d="M163.898 388.186V390.669L164.899 390.789L165.26 392.911H168.103L169.706 394.033L172.189 395.394H175.153L177.115 397.356H180.32L182.923 398.838L185.406 399.599L187.649 397.476L191.374 395.114L190.012 392.03V390.188L192.135 388.066L191.254 384.742L192.376 382.26H195.099L196.341 378.295L200.066 376.694V372.849L201.067 369.646L198.344 368.765L195.259 369.365L193.016 368.485L191.294 367.483C191.294 367.483 189.051 366.242 188.571 366.242C188.09 366.242 185.486 365.001 185.486 365.001L183.884 363.399L183.404 365.001H180.92L179.078 362.758H176.354C176.354 362.758 176.234 359.995 175.673 359.995C175.113 359.995 174.111 358.433 174.111 358.433L171.989 357.392H169.425L167.382 359.435H164.178L162.576 361.036L159.892 360.716L157.73 358.554H153.644L151.401 357.192L148.477 357.392L146.795 355.71H143.471L141.748 353.989L140.587 351.506L137.623 353.989L137.342 356.391L135.62 358.113L135.22 362.118L134.178 364.4L133.017 366.402H130.333L129.172 369.646L129.452 370.807L132.055 372.249L132.776 376.133L135.18 378.536L137.783 379.977L139.666 381.859L143.511 382.82L146.475 381.939L149.719 382.82V384.822L151.241 386.344L152.683 389.227L154.766 390.869L155.967 393.072L157.249 391.51H159.452L160.974 389.347L163.898 388.186Z" fill="#9874FE" stroke="white" stroke-width="2"/>
</svg>
