<svg width="1234" height="692" viewBox="0 0 1234 692" fill="none" xmlns="http://www.w3.org/2000/svg">
<path fill-rule="evenodd" clip-rule="evenodd" d="M108.144 478.926L107.022 482.089L110.146 485.893L113.03 487.615L114.192 492.02L117.236 495.464L117.116 499.148L120.52 500.99L118.958 502.912L117.636 506.156L110.547 507.117L110.747 510.2L108.064 509.8L105.38 512.483L106.141 516.687L103.257 518.409L99.0516 522.614L92.2826 515.446L93.0036 512.803L91.1611 508.839L92.0022 503.433L91.1611 501.911L93.6044 497.626L96.0476 494.783L94.4455 492.861L96.9689 490.338L95.8474 487.575L98.6911 486.054L102.176 482.289L105.62 479.246L108.144 478.926Z" fill="#9874FE"/>
</svg>
