<svg width="405" height="216" viewBox="0 0 405 216" fill="none" xmlns="http://www.w3.org/2000/svg">
<path d="M398.926 70.7178H337.014V185.806H398.926V70.7178Z" fill="white"/>
<path d="M398.9 186.651C398.465 186.651 398.106 186.292 398.106 185.857V70.7683C398.106 70.3331 398.465 69.9746 398.9 69.9746C399.336 69.9746 399.695 70.3331 399.695 70.7683V185.857C399.695 186.292 399.336 186.651 398.9 186.651Z" fill="black"/>
<path d="M212.549 56.9941H44.8091V185.832H212.549V56.9941Z" fill="#CADDFF"/>
<path d="M1.38099 70.8209H44.6041C44.8092 70.8209 44.9887 70.6416 44.9887 70.4368V57.1741C44.9887 56.9693 44.8092 56.79 44.6041 56.79H31.5295C31.4782 56.79 31.427 56.79 31.3757 56.8156L1.22717 70.0784C0.84262 70.2576 0.970802 70.8209 1.38099 70.8209Z" fill="white"/>
<path d="M336.655 70.7183H403.925C404.284 70.7183 404.361 70.2319 404.053 70.1038L372.469 56.6875H336.655V70.7183Z" fill="white"/>
<path d="M403.848 71.5108H373.674C373.238 71.5108 372.88 71.1524 372.88 70.7171C372.88 70.2819 373.238 69.9234 373.674 69.9234H401.592L372.264 57.48H342.449C342.013 57.48 341.654 57.1216 341.654 56.6863C341.654 56.251 342.013 55.8926 342.449 55.8926H372.418C372.521 55.8926 372.623 55.9182 372.726 55.9438L404.259 69.3345C404.746 69.5393 405.028 70.0514 404.925 70.5891C404.848 71.1268 404.387 71.5108 403.848 71.5108Z" fill="black"/>
<path d="M252.721 0.845703H130.486L224.367 43.3734H344.91C345.294 43.3734 345.423 42.8357 345.064 42.6821L252.721 0.845703Z" fill="white"/>
<path d="M345.166 44.1413H339.885C339.449 44.1413 339.09 43.7829 339.09 43.3476C339.09 42.9123 339.449 42.5539 339.885 42.5539H342.962L252.542 1.63919H139.126C138.69 1.63919 138.331 1.28073 138.331 0.845472C138.331 0.410209 138.69 0.0517578 139.126 0.0517578H252.721C252.824 0.0517578 252.952 0.0773615 253.054 0.128569L345.628 42.0674C346.089 42.2722 346.346 42.7843 346.243 43.2964C346.14 43.8085 345.705 44.1413 345.166 44.1413Z" fill="black"/>
<path d="M224.598 43.3981H35.5032L130.358 0.844727L224.598 43.3981Z" fill="white"/>
<path d="M224.598 44.2432H35.5032C35.093 44.2432 34.7597 43.9615 34.6828 43.5775C34.6059 43.1934 34.811 42.7838 35.1699 42.6301L130.025 0.0768111C130.256 -0.0256037 130.512 -0.0256037 130.717 0.0768111L224.982 42.6301C225.341 42.7838 225.546 43.1934 225.47 43.5775C225.341 43.9615 225.008 44.2432 224.598 44.2432ZM39.4512 42.5533H220.676L130.358 1.76665L39.4512 42.5533Z" fill="black"/>
<path d="M336.963 56.8408H212.574V185.576H336.963V56.8408Z" fill="#CADDFF"/>
<path d="M88.4679 56.9951H76.4187V185.833H88.4679V56.9951Z" fill="white"/>
<path d="M119.565 56.9951H107.516V185.833H119.565V56.9951Z" fill="white"/>
<path d="M150.688 56.9951H138.639V185.833H150.688V56.9951Z" fill="white"/>
<path d="M181.811 56.9951H169.761V185.833H181.811V56.9951Z" fill="white"/>
<path d="M212.523 56.9951H200.474V185.833H212.523V56.9951Z" fill="white"/>
<path d="M57.3453 56.9951H45.2961V185.833H57.3453V56.9951Z" fill="white"/>
<path d="M243.646 56.9951H231.597V185.833H243.646V56.9951Z" fill="white"/>
<path d="M274.768 56.9951H262.719V185.833H274.768V56.9951Z" fill="white"/>
<path d="M305.866 56.9951H293.816V185.833H305.866V56.9951Z" fill="white"/>
<path d="M336.988 56.9951H324.939V185.833H336.988V56.9951Z" fill="white"/>
<path d="M336.963 43.4492H212.574V56.9936H336.963V43.4492Z" fill="white"/>
<path d="M336.988 57.8641H212.575C212.113 57.8641 211.729 57.48 211.729 57.0192V43.4748C211.729 43.0139 212.113 42.6299 212.575 42.6299H336.963C337.424 42.6299 337.809 43.0139 337.809 43.4748V57.0192C337.834 57.48 337.45 57.8641 336.988 57.8641ZM213.421 56.1742H336.117V44.2941H213.421V56.1742Z" fill="black"/>
<path d="M212.549 185.807H169.761V214.995H212.549V185.807Z" fill="white"/>
<path d="M212.523 215.865H169.762C169.3 215.865 168.916 215.481 168.916 215.02V185.832C168.916 185.371 169.3 184.987 169.762 184.987H212.523C212.985 184.987 213.369 185.371 213.369 185.832V215.02C213.369 215.481 213.01 215.865 212.523 215.865ZM170.608 214.15H211.703V186.652H170.608V214.15Z" fill="black"/>
<path d="M398.926 185.807H336.937V214.892H398.926V185.807Z" fill="white"/>
<path d="M398.926 215.763H336.937C336.476 215.763 336.091 215.379 336.091 214.918V185.807C336.091 185.346 336.476 184.962 336.937 184.962H398.926C399.388 184.962 399.772 185.346 399.772 185.807V214.893C399.772 215.379 399.388 215.763 398.926 215.763ZM337.783 214.048H398.08V186.652H337.783V214.048Z" fill="black"/>
<path d="M45.4757 70.7178H6.71338V185.704H45.4757V70.7178Z" fill="white"/>
<path d="M6.71343 186.088C6.27761 186.088 5.9187 185.73 5.9187 185.294V71.1531C5.9187 70.7178 6.27761 70.3594 6.71343 70.3594C7.14925 70.3594 7.50816 70.7178 7.50816 71.1531V185.32C7.48253 185.73 7.14925 186.088 6.71343 186.088Z" fill="black"/>
<path d="M212.6 43.4492H45.2964V56.9936H212.6V43.4492Z" fill="white"/>
<path d="M212.575 57.8641H45.2964C44.835 57.8641 44.4504 57.48 44.4504 57.0192V43.4748C44.4504 43.0139 44.835 42.6299 45.2964 42.6299H212.6C213.062 42.6299 213.446 43.0139 213.446 43.4748V57.0192C213.421 57.48 213.062 57.8641 212.575 57.8641ZM46.1424 56.1742H211.729V44.2941H46.1424V56.1742Z" fill="black"/>
<path d="M45.4755 185.884H6.73877V214.995H45.4755V185.884Z" fill="white"/>
<path d="M45.4756 215.84H6.73883C6.27737 215.84 5.89282 215.456 5.89282 214.995V185.884C5.89282 185.423 6.27737 185.039 6.73883 185.039H45.4756C45.937 185.039 46.3216 185.423 46.3216 185.884V214.995C46.3216 215.456 45.937 215.84 45.4756 215.84ZM7.58483 214.15H44.6296V186.729H7.58483V214.15Z" fill="black"/>
<path d="M88.4423 185.807H45.6294V214.995H88.4423V185.807Z" fill="white"/>
<path d="M88.4424 215.865H45.6295C45.168 215.865 44.7834 215.481 44.7834 215.02V185.832C44.7834 185.371 45.168 184.987 45.6295 184.987H88.4424C88.9038 184.987 89.2884 185.371 89.2884 185.832V215.02C89.2884 215.481 88.9038 215.865 88.4424 215.865ZM46.4755 214.15H87.5708V186.652H46.4755V214.15Z" fill="black"/>
<path d="M169.736 185.807H88.6733V214.995H169.736V185.807Z" fill="white"/>
<path d="M169.762 215.865H88.6734C88.2119 215.865 87.8274 215.481 87.8274 215.02V185.832C87.8274 185.371 88.2119 184.987 88.6734 184.987H169.736C170.197 184.987 170.582 185.371 170.582 185.832V215.02C170.608 215.481 170.223 215.865 169.762 215.865ZM89.5194 214.15H168.89V186.652H89.5194V214.15Z" fill="black"/>
<path d="M30.6323 71.6143H1.12473C0.586366 71.6143 0.150545 71.2559 0.0223629 70.7182C-0.080183 70.2061 0.176182 69.6685 0.663275 69.4636L31.0938 56.0729C31.1963 56.0217 31.2989 55.9961 31.4014 55.9961H39.1436C39.5795 55.9961 39.9384 56.3545 39.9384 56.7898C39.9384 57.2251 39.5795 57.5835 39.1436 57.5835H31.5552L3.2782 70.0525H30.6323C31.0681 70.0525 31.4271 70.411 31.4271 70.8462C31.4014 71.2559 31.0681 71.6143 30.6323 71.6143Z" fill="black"/>
<path d="M360.728 87.0273H348.678V110.634H360.728V87.0273Z" fill="#CADDFF"/>
<path d="M360.728 137.006H348.678V160.612H360.728V137.006Z" fill="#CADDFF"/>
<path d="M31.1961 87.0273H19.147V110.634H31.1961V87.0273Z" fill="#CADDFF"/>
<path d="M31.1961 137.006H19.147V160.612H31.1961V137.006Z" fill="#CADDFF"/>
<path d="M386.108 87.0273H374.059V110.634H386.108V87.0273Z" fill="#CADDFF"/>
<path d="M386.108 137.006H374.059V160.612H386.108V137.006Z" fill="#CADDFF"/>
<path d="M337.065 185.807H212.703V214.995H337.065V185.807Z" fill="white"/>
<path d="M337.091 215.865H212.703C212.241 215.865 211.857 215.481 211.857 215.02V185.832C211.857 185.371 212.241 184.987 212.703 184.987H337.065C337.527 184.987 337.911 185.371 337.911 185.832V215.02C337.937 215.481 337.552 215.865 337.091 215.865ZM213.549 214.15H336.219V186.652H213.549V214.15Z" fill="black"/>
<path d="M161.147 192.668H141.151C140.689 192.668 140.305 192.284 140.305 191.823C140.305 191.363 140.689 190.979 141.151 190.979H161.147C161.609 190.979 161.993 191.363 161.993 191.823C161.993 192.284 161.609 192.668 161.147 192.668Z" fill="white"/>
<path d="M161.148 198.506H131.461C130.999 198.506 130.615 198.122 130.615 197.661C130.615 197.2 130.999 196.816 131.461 196.816H161.148C161.609 196.816 161.994 197.2 161.994 197.661C161.994 198.122 161.609 198.506 161.148 198.506Z" fill="white"/>
<path d="M161.147 204.343H121.616C121.155 204.343 120.77 203.959 120.77 203.498C120.77 203.037 121.155 202.653 121.616 202.653H161.147C161.609 202.653 161.994 203.037 161.994 203.498C161.994 203.959 161.609 204.343 161.147 204.343Z" fill="white"/>
<path d="M161.147 210.156H96.3384C95.877 210.156 95.4924 209.772 95.4924 209.311C95.4924 208.85 95.877 208.466 96.3384 208.466H161.147C161.609 208.466 161.993 208.85 161.993 209.311C161.993 209.797 161.609 210.156 161.147 210.156Z" fill="white"/>
<path d="M262.72 85.2874C262.284 85.2874 261.925 84.9289 261.925 84.4937V65.3933C261.925 64.9581 262.284 64.5996 262.72 64.5996C263.155 64.5996 263.514 64.9581 263.514 65.3933V84.4937C263.489 84.9289 263.155 85.2874 262.72 85.2874Z" fill="black"/>
<path d="M293.816 114.629C293.381 114.629 293.022 114.27 293.022 113.835V64.5222C293.022 64.087 293.381 63.7285 293.816 63.7285C294.252 63.7285 294.611 64.087 294.611 64.5222V113.835C294.611 114.27 294.252 114.629 293.816 114.629Z" fill="black"/>
<path d="M305.866 171.367C305.43 171.367 305.071 171.008 305.071 170.573V77.8875C305.071 77.4522 305.43 77.0938 305.866 77.0938C306.302 77.0938 306.66 77.4522 306.66 77.8875V170.573C306.66 171.034 306.302 171.367 305.866 171.367Z" fill="black"/>
<path d="M212.523 181.48C212.087 181.48 211.729 181.121 211.729 180.686V62.781C211.729 62.3458 212.087 61.9873 212.523 61.9873C212.959 61.9873 213.318 62.3458 213.318 62.781V180.686C213.318 181.121 212.959 181.48 212.523 181.48Z" fill="black"/>
<path d="M45.2964 181.838C44.8606 181.838 44.5017 181.48 44.5017 181.045V61.9363C44.5017 61.501 44.8606 61.1426 45.2964 61.1426C45.7323 61.1426 46.0912 61.501 46.0912 61.9363V181.045C46.0912 181.48 45.7323 181.838 45.2964 181.838Z" fill="black"/>
<path d="M336.988 181.275C336.553 181.275 336.194 180.917 336.194 180.481V62.5252C336.194 62.0899 336.553 61.7314 336.988 61.7314C337.424 61.7314 337.783 62.0899 337.783 62.5252V180.481C337.783 180.917 337.424 181.275 336.988 181.275Z" fill="black"/>
</svg>
