<svg xmlns="http://www.w3.org/2000/svg" version="1.1" xmlns:xlink="http://www.w3.org/1999/xlink" xmlns:svgjs="http://svgjs.com/svgjs" width="512" height="512" x="0" y="0" viewBox="0 0 1000 1000" style="enable-background:new 0 0 512 512" xml:space="preserve" class=""><g><path d="M465.86 196.37H324a15.5 15.5 0 0 1 0-31h141.86a15.5 15.5 0 0 1 0 31Z" fill="#9874fe" data-original="#000000" class=""></path><path d="M908.11 915.5H91.89a15.5 15.5 0 0 1-15.5-15.5V180.87a15.5 15.5 0 0 1 15.5-15.5h163.78a15.5 15.5 0 1 1 0 31H107.39V884.5h785.22V196.37H744.33a15.5 15.5 0 0 1 0-31h163.78a15.5 15.5 0 0 1 15.5 15.5V900a15.5 15.5 0 0 1-15.5 15.5Z" fill="#9874fe" data-original="#000000" class=""></path><path d="M676.05 196.37H534.14a15.5 15.5 0 0 1 0-31h141.91a15.5 15.5 0 0 1 0 31ZM908.11 323.29H91.89a15.5 15.5 0 1 1 0-31h816.22a15.5 15.5 0 0 1 0 31ZM347.43 562.49H232.2A15.49 15.49 0 0 1 216.7 547V445.35a15.49 15.49 0 0 1 15.5-15.5h115.23a15.5 15.5 0 0 1 15.5 15.5V547a15.49 15.49 0 0 1-15.5 15.49Zm-99.73-31h84.23v-70.64H247.7ZM557.62 562.49H442.38a15.49 15.49 0 0 1-15.5-15.5V445.35a15.5 15.5 0 0 1 15.5-15.5h115.24a15.5 15.5 0 0 1 15.5 15.5V547a15.49 15.49 0 0 1-15.5 15.49Zm-99.74-31h84.24v-70.64h-84.24ZM767.8 562.49H652.57a15.49 15.49 0 0 1-15.5-15.5V445.35a15.5 15.5 0 0 1 15.5-15.5H767.8a15.49 15.49 0 0 1 15.5 15.5V547a15.49 15.49 0 0 1-15.5 15.49Zm-99.73-31h84.23v-70.64h-84.23ZM347.43 777.79H232.2a15.49 15.49 0 0 1-15.5-15.5V660.66a15.49 15.49 0 0 1 15.5-15.5h115.23a15.5 15.5 0 0 1 15.5 15.5v101.63a15.49 15.49 0 0 1-15.5 15.5Zm-99.73-31h84.23v-70.63H247.7ZM557.62 777.79H442.38a15.49 15.49 0 0 1-15.5-15.5V660.66a15.5 15.5 0 0 1 15.5-15.5h115.24a15.5 15.5 0 0 1 15.5 15.5v101.63a15.49 15.49 0 0 1-15.5 15.5Zm-99.74-31h84.24v-70.63h-84.24ZM767.8 777.79H652.57a15.49 15.49 0 0 1-15.5-15.5V660.66a15.5 15.5 0 0 1 15.5-15.5H767.8a15.49 15.49 0 0 1 15.5 15.5v101.63a15.49 15.49 0 0 1-15.5 15.5Zm-99.73-31h84.23v-70.63h-84.23ZM294.05 271.78h-8.47a45.45 45.45 0 0 1-45.41-45.4v-96.47a45.46 45.46 0 0 1 45.41-45.41h8.47a45.46 45.46 0 0 1 45.4 45.41v96.47a45.45 45.45 0 0 1-45.4 45.4Zm-8.47-156.28a14.42 14.42 0 0 0-14.41 14.41v96.47a14.42 14.42 0 0 0 14.41 14.4h8.47a14.42 14.42 0 0 0 14.4-14.4v-96.47a14.42 14.42 0 0 0-14.4-14.41Z" fill="#9874fe" data-original="#000000" class=""></path><path d="M504.24 271.78h-8.48a45.45 45.45 0 0 1-45.4-45.4v-96.47a45.46 45.46 0 0 1 45.4-45.41h8.48a45.46 45.46 0 0 1 45.4 45.41v96.47a45.45 45.45 0 0 1-45.4 45.4Zm-8.48-156.28a14.42 14.42 0 0 0-14.4 14.41v96.47a14.42 14.42 0 0 0 14.4 14.4h8.48a14.42 14.42 0 0 0 14.4-14.4v-96.47a14.42 14.42 0 0 0-14.4-14.41ZM714.42 271.78H706a45.45 45.45 0 0 1-45.4-45.4v-96.47A45.46 45.46 0 0 1 706 84.5h8.47a45.46 45.46 0 0 1 45.41 45.41v96.47a45.45 45.45 0 0 1-45.46 45.4ZM706 115.5a14.42 14.42 0 0 0-14.4 14.41v96.47a14.42 14.42 0 0 0 14.4 14.4h8.47a14.42 14.42 0 0 0 14.41-14.4v-96.47a14.42 14.42 0 0 0-14.41-14.41Z" fill="#9874fe" data-original="#000000" class=""></path></g></svg>