<svg width="142" height="100" viewBox="0 0 142 100" fill="none" xmlns="http://www.w3.org/2000/svg">
<path d="M43.5 87.5728C67.5244 87.5728 87 68.0927 87 44.0628C87 20.0328 67.5244 0.552734 43.5 0.552734C19.4756 0.552734 0 20.0328 0 44.0628C0 68.0927 19.4756 87.5728 43.5 87.5728Z" fill="#333333"/>
<path d="M103.642 44.7832C103.567 64.4105 87.4546 80.3184 67.6457 80.3184C47.8368 80.3184 31.8418 64.4105 31.9168 44.7832C31.9918 25.156 48.1046 9.24805 67.9135 9.24805C87.7224 9.24805 103.728 25.156 103.642 44.7832Z" fill="white"/>
<path d="M67.6563 80.5526C58.0251 80.5526 48.9723 76.8333 42.1801 70.0854C35.3664 63.327 31.6382 54.3263 31.681 44.7624C31.756 25.0501 48.0081 9.01465 67.9028 9.01465C77.534 9.01465 86.5868 12.7339 93.379 19.4818C100.193 26.2403 103.921 35.241 103.878 44.8049C103.803 64.5171 87.5617 80.5526 67.6563 80.5526ZM67.9349 9.48222C48.276 9.48222 32.2274 25.3264 32.1524 44.8049C32.1203 54.2413 35.7949 63.1144 42.5015 69.7773C49.1973 76.4295 58.1215 80.0957 67.6242 80.0957C87.2831 80.0957 103.332 64.2515 103.407 44.773C103.439 35.3366 99.7642 26.4634 93.0576 19.8006C86.3618 13.1484 77.4376 9.48222 67.9349 9.48222Z" fill="black"/>
<path d="M108.003 35.0392C103.782 17.0166 87.5189 3.60587 68.042 3.55273L67.8813 44.6456C67.8813 44.6456 101.307 36.5588 108.003 35.0392Z" fill="#437FEC"/>
<path d="M44.5371 14.0732C36.095 20.3323 30.6848 29.6411 29.2385 39.6939C38.7198 40.9478 67.9243 44.784 67.9243 44.784C67.9243 44.784 48.3725 19.2165 44.5371 14.0732Z" fill="white"/>
<path d="M67.9456 45.0074C67.9349 45.0074 67.9242 45.0074 67.9135 45.0074C67.6242 44.9649 38.6019 41.1605 29.2277 39.9172C29.1634 39.9066 29.0991 39.8747 29.0563 39.8216C29.0134 39.7685 28.992 39.7047 29.0027 39.6409C30.4705 29.4288 36.0735 20.035 44.3871 13.8822C44.4406 13.8503 44.5049 13.8291 44.5585 13.8397C44.6227 13.8503 44.6763 13.8822 44.7192 13.9353C48.5117 19.0254 67.9028 44.3804 68.1063 44.6354C68.1599 44.7098 68.1706 44.8161 68.1278 44.8905C68.0956 44.9755 68.0206 45.0074 67.9456 45.0074ZM29.5063 39.4922C38.409 40.6717 63.4353 43.9553 67.41 44.476C64.8495 41.1287 48.3296 19.5143 44.5049 14.4029C36.4485 20.4494 31.0061 29.567 29.5063 39.4922Z" fill="black"/>
<path d="M68 62.2474L105 78.942L142 62.2474L105 45.5527L68 62.2474Z" fill="#437FEC"/>
<path d="M124.484 82.3425V67.2287C124.484 64.4197 123.012 61.9974 120.951 61.3946C110.32 58.2786 99.68 58.2786 89.0487 61.3946C86.9875 61.9974 85.5164 64.4197 85.5164 67.2287V82.3425C85.5164 84.9468 94.2404 87.0621 105 87.0621C115.76 87.0621 124.484 84.9582 124.484 82.3425Z" fill="#437FEC"/>
<path d="M124.484 68.1954C124.381 68.1954 124.296 68.0817 124.296 67.9452C124.296 64.2378 115.46 61.099 105 61.099C94.5399 61.099 85.7047 64.2264 85.7047 67.9338C85.7047 68.0703 85.6192 68.184 85.5165 68.184C85.4139 68.184 85.3284 68.0703 85.3284 67.9338C85.3284 63.817 93.9668 60.5986 105 60.5986C116.033 60.5986 124.672 63.8284 124.672 67.9338C124.672 68.0817 124.586 68.1954 124.484 68.1954Z" fill="white"/>
<path d="M138.836 82.9456C138.733 82.9456 138.648 82.8319 138.648 82.6954V65.2502C138.648 65.1137 138.733 65 138.836 65C138.939 65 139.024 65.1137 139.024 65.2502V82.6954C139.024 82.8319 138.939 82.9456 138.836 82.9456Z" fill="#437FEC"/>
<path d="M136.159 99.4469H141.504L138.836 84.8789L136.159 99.4469Z" fill="#437FEC"/>
</svg>
