<svg width="144" height="120" viewBox="0 0 144 120" fill="none" xmlns="http://www.w3.org/2000/svg">
<path d="M43.5 87.0201C67.5244 87.0201 87 67.54 87 43.51C87 19.4801 67.5244 0 43.5 0C19.4756 0 0 19.4801 0 43.51C0 67.54 19.4756 87.0201 43.5 87.0201Z" fill="#333333"/>
<path d="M99.7358 49.0977L130.856 31.2295L131.039 54.984L143.788 47.7093V94.9711L99.9384 119.791L99.7358 49.0977Z" fill="white"/>
<path d="M29.2122 63.2188L29.4725 110.481L99.9384 119.79L99.5237 49.5633L52.7426 42.8877L52.704 66.4235L29.2122 63.2188Z" fill="white"/>
<path d="M48.4897 29.6699L48.2969 53.5481L29.2122 63.2192L52.704 66.4238L52.7426 43.0021L71.3644 33.1979L48.4897 29.6699Z" fill="#E2EAFF"/>
<path d="M130.981 47.7852L131.039 54.9838L143.605 47.7852H130.981Z" fill="#E2EAFF"/>
<path d="M80.873 13L48.4897 29.67L71.0751 33.198L52.7426 42.8881L99.5237 49.8205L130.634 31.705L109.312 28.3007L123.488 20.5124L80.873 13Z" fill="#437FEC"/>
<path d="M109.312 28.3009L123.488 30.5642V20.5127L109.312 28.3009Z" fill="#E2EAFF"/>
<path d="M99.9385 120C99.9288 120 99.9192 120 99.9095 120L29.4437 110.69C29.3376 110.681 29.2605 110.585 29.2605 110.481L29.0869 63.2286C29.0869 63.1145 29.1834 63.0194 29.2991 63.0194C29.4148 63.0194 29.5112 63.1145 29.5112 63.2286L29.6848 110.291L99.8999 119.562L143.576 94.8379V47.7092C143.576 47.5951 143.672 47.5 143.788 47.5C143.904 47.5 144 47.5951 144 47.7092V94.971C144 95.0471 143.962 95.1137 143.894 95.1517L100.045 119.971C100.016 119.99 99.9771 120 99.9385 120Z" fill="black"/>
<path d="M131.405 102.104C131.29 102.104 131.193 102.008 131.193 101.894L130.644 31.886C130.644 31.7719 130.74 31.6768 130.856 31.6768C130.962 31.6768 131.068 31.7719 131.068 31.886L131.618 101.894C131.618 102.008 131.521 102.104 131.405 102.104Z" fill="black"/>
<path d="M109.312 28.5099C109.302 28.5099 109.293 28.5099 109.283 28.5099L64.8838 21.7106C64.7681 21.6916 64.6909 21.587 64.7102 21.4729C64.7295 21.3588 64.8356 21.2827 64.9513 21.3017L109.341 28.101C109.457 28.12 109.534 28.2246 109.514 28.3387C109.505 28.4433 109.408 28.5099 109.312 28.5099Z" fill="black"/>
<path d="M99.7359 73.0525C99.7263 73.0525 99.7166 73.0525 99.707 73.0525L29.1833 63.4289C29.0869 63.4194 29.0194 63.3434 29.0001 63.2578C28.9808 63.1722 29.029 63.0771 29.1158 63.0391L48.0848 53.4155L48.0944 29.7561C48.0944 29.642 48.1908 29.5469 48.3066 29.5469C48.4223 29.5469 48.5187 29.642 48.5187 29.7561L48.5091 53.5391C48.5091 53.6152 48.4609 53.6913 48.3934 53.7293L29.9066 63.1056L99.6877 72.6245L142.997 47.9286L130.981 47.9096C130.865 47.9096 130.769 47.8145 130.769 47.7004C130.769 47.5862 130.865 47.4912 130.981 47.4912L143.788 47.5102C143.884 47.5102 143.971 47.5767 143.99 47.6623C144.019 47.7574 143.971 47.8525 143.894 47.9001L99.842 73.0239C99.8034 73.043 99.7649 73.0525 99.7359 73.0525Z" fill="black"/>
<path d="M116.795 110.452C116.68 110.452 116.583 110.357 116.583 110.243L116.198 40.3583L70.7569 33.4069C70.6411 33.3879 70.564 33.2833 70.5833 33.1692C70.6026 33.0551 70.7086 32.979 70.8244 32.998L116.448 39.9779C116.554 39.997 116.631 40.0825 116.631 40.1872L117.017 110.253C117.017 110.357 116.921 110.452 116.795 110.452Z" fill="black"/>
<path d="M52.627 113.657C52.5112 113.657 52.4148 113.562 52.4148 113.448L52.5305 42.8879C52.5305 42.7738 52.627 42.6787 52.7427 42.6787C52.8584 42.6787 52.9548 42.7738 52.9548 42.8879L52.8391 113.448C52.8391 113.562 52.7427 113.657 52.627 113.657Z" fill="black"/>
<path d="M70.9113 33.4262C70.8341 33.4262 70.7666 33.3881 70.728 33.3121C70.6702 33.2075 70.7088 33.0838 70.8148 33.0268L101.549 16.6896C101.655 16.6325 101.78 16.6706 101.838 16.7752C101.896 16.8798 101.858 17.0034 101.752 17.0605L71.0174 33.4072C70.9884 33.4167 70.9499 33.4262 70.9113 33.4262Z" fill="black"/>
<path d="M76.3887 116.919C76.2729 116.919 76.1765 116.824 76.1765 116.71L76.2344 46.3688C76.2344 46.2928 76.2729 46.2262 76.3405 46.1882L109.196 28.1203C109.302 28.0632 109.428 28.1012 109.486 28.2058C109.543 28.3104 109.505 28.4341 109.399 28.4911L76.6683 46.4925L76.6105 116.71C76.6008 116.824 76.5044 116.919 76.3887 116.919Z" fill="black"/>
<path d="M99.7359 96.6924C99.7263 96.6924 99.7166 96.6924 99.707 96.6924L29.3569 87.0594C29.2412 87.0404 29.164 86.9357 29.1737 86.8216C29.193 86.7075 29.299 86.6315 29.4148 86.641L99.6877 96.2645L143.682 71.1596C143.788 71.1026 143.913 71.1406 143.971 71.2357C144.029 71.3403 143.99 71.4639 143.894 71.521L99.842 96.6639C99.8034 96.6829 99.7649 96.6924 99.7359 96.6924Z" fill="black"/>
<path d="M99.9384 120C99.8226 120 99.7262 119.905 99.7262 119.791L99.3115 49.8205C99.3115 49.7064 99.408 49.6113 99.5237 49.6113C99.6394 49.6113 99.7358 49.7064 99.7358 49.8205L100.151 119.791C100.151 119.905 100.054 120 99.9384 120Z" fill="black"/>
<path d="M52.7232 54.4037C52.7136 54.4037 52.704 54.4037 52.6943 54.4037L48.2775 53.7571C48.1618 53.7381 48.0847 53.6335 48.0943 53.5194C48.1136 53.4053 48.2197 53.3292 48.3354 53.3387L52.7522 53.9853C52.8679 54.0043 52.9451 54.109 52.9354 54.2231C52.9161 54.3277 52.8293 54.4037 52.7232 54.4037Z" fill="black"/>
<path d="M123.488 30.5259C123.372 30.5259 123.276 30.4308 123.276 30.3167V20.7121C123.276 20.598 123.372 20.5029 123.488 20.5029C123.604 20.5029 123.7 20.598 123.7 20.7121V30.3167C123.7 30.4403 123.604 30.5259 123.488 30.5259Z" fill="black"/>
</svg>
