<svg width="328" height="223" viewBox="0 0 328 223" fill="none" xmlns="http://www.w3.org/2000/svg">
<path d="M11.6606 210.691V211.291H12.2606H316.275H316.875V210.691V11.8075V11.2075H316.275H12.2606H11.6606V11.8075V210.691ZM321.964 221.469H6.5717C3.71729 221.469 1.48281 219.234 1.48281 216.38V6.11858C1.48281 3.26417 3.71729 1.02969 6.5717 1.02969H321.964C324.818 1.02969 327.053 3.26417 327.053 6.11858V216.38C327.053 219.128 324.81 221.469 321.964 221.469Z" fill="black" stroke="white" stroke-width="1.2"/>
<path d="M163.86 144.798L164.268 145.176L164.675 144.798L318.503 2.3487L318.509 2.34343C320.539 0.414624 323.792 0.512071 325.729 2.65231L325.733 2.65772L325.738 2.66301C327.667 4.69334 327.57 7.94666 325.43 9.88304L325.425 9.88768L167.735 155.859C167.734 155.86 167.733 155.861 167.731 155.862C166.712 156.778 165.494 157.184 164.268 157.184C163.041 157.184 161.823 156.778 160.804 155.862C160.803 155.861 160.802 155.86 160.801 155.859L3.11648 9.89299C3.11557 9.89213 3.11467 9.89127 3.11376 9.89041C1.08563 7.96097 0.969903 4.80758 2.80748 2.6519C4.75368 0.614551 7.9004 0.422074 10.0351 2.35111C10.0359 2.35186 10.0367 2.35261 10.0376 2.35335L163.86 144.798Z" fill="black" stroke="white" stroke-width="1.2"/>
<path d="M2.98521 219.775L2.97614 219.766C1.04611 217.734 1.14362 214.479 3.28525 212.542L3.2903 212.537L116.908 107.362L116.913 107.357C118.945 105.427 122.2 105.525 124.138 107.666C126.087 109.82 125.975 112.968 123.839 114.9L123.834 114.905L10.2228 220.074C10.2218 220.075 10.2209 220.076 10.2199 220.077C9.19999 220.993 7.98102 221.4 6.75345 221.4C5.41918 221.4 3.99505 220.886 2.98511 219.775L2.98521 219.775ZM322.332 221.4C321.104 221.4 319.885 220.993 318.866 220.077C318.864 220.076 318.863 220.075 318.862 220.074L205.257 114.91C205.256 114.909 205.255 114.908 205.254 114.907C203.225 112.977 203.109 109.822 204.948 107.666C206.88 105.644 210.032 105.531 212.186 107.37C212.189 107.373 212.192 107.375 212.195 107.378L325.789 212.532C325.79 212.533 325.791 212.534 325.793 212.535C327.823 214.467 327.937 217.625 326.094 219.782C325.084 220.888 323.663 221.4 322.332 221.4ZM208.61 42.7826H120.589C119.08 42.7826 117.798 42.4251 116.91 41.7535C116.043 41.0987 115.497 40.1075 115.497 38.6913C115.497 37.2751 116.043 36.2839 116.91 35.6291C117.798 34.9575 119.08 34.6 120.589 34.6H208.61C210.119 34.6 211.401 34.9575 212.289 35.6291C213.156 36.2839 213.702 37.2751 213.702 38.6913C213.702 40.098 213.135 41.0915 212.25 41.7511C211.344 42.4268 210.059 42.7826 208.61 42.7826ZM208.61 68.7188H120.589C119.08 68.7188 117.798 68.3613 116.91 67.6897C116.043 67.0349 115.497 66.0437 115.497 64.6275C115.497 63.2114 116.043 62.2201 116.91 61.5654C117.798 60.8937 119.08 60.5362 120.589 60.5362H208.61C210.119 60.5362 211.401 60.8937 212.289 61.5654C213.156 62.2201 213.702 63.2114 213.702 64.6275C213.702 66.0343 213.135 67.0277 212.25 67.6873C211.344 68.363 210.059 68.7188 208.61 68.7188Z" fill="black" stroke="white" stroke-width="1.2"/>
</svg>
