<svg width="512" height="512" viewBox="0 0 512 512" fill="none" xmlns="http://www.w3.org/2000/svg">
<path d="M486.4 59.7334H25.6C11.462 59.7334 0 71.1944 0 85.3334V426.666C0 440.804 11.461 452.266 25.6 452.266H486.4C500.538 452.266 512 440.805 512 426.666V85.3334C512 71.1954 500.539 59.7334 486.4 59.7334ZM494.933 426.667C494.933 428.93 494.034 431.101 492.434 432.701C490.833 434.301 488.663 435.2 486.4 435.2H25.6C23.3369 435.2 21.1665 434.301 19.5663 432.701C17.966 431.101 17.067 428.93 17.067 426.667V85.3334C17.067 83.0703 17.966 80.8999 19.5663 79.2997C21.1665 77.6994 23.3369 76.8004 25.6 76.8004H486.4C488.663 76.8004 490.833 77.6994 492.434 79.2997C494.034 80.8999 494.933 83.0703 494.933 85.3334V426.667Z" fill="#9155AD"/>
<path d="M470.076 93.8986C468.96 93.801 467.835 93.9244 466.766 94.2618C465.697 94.5991 464.705 95.1438 463.847 95.8646L266.982 261.24C263.906 263.825 260.017 265.242 256 265.242C251.982 265.242 248.093 263.825 245.017 261.24L48.1541 95.8636C46.4163 94.4443 44.1896 93.7664 41.9557 93.9766C39.7219 94.1867 37.6606 95.2681 36.2181 96.9865C34.7755 98.705 34.0676 100.922 34.2477 103.159C34.4277 105.395 35.4812 107.471 37.1801 108.937L234.044 274.304C246.732 284.987 265.268 284.987 277.957 274.304L474.82 108.938C475.679 108.217 476.387 107.335 476.904 106.34C477.422 105.346 477.738 104.26 477.835 103.143C477.933 102.027 477.809 100.902 477.472 99.8334C477.135 98.7646 476.59 97.7728 475.869 96.9146C475.149 96.0558 474.267 95.3473 473.273 94.8298C472.279 94.3123 471.193 93.9958 470.076 93.8986ZM164.124 273.131C162.641 272.8 161.096 272.871 159.649 273.337C158.203 273.803 156.907 274.646 155.895 275.781L36.4281 403.781C35.6445 404.596 35.0308 405.559 34.6228 406.614C34.2148 407.669 34.0206 408.795 34.0515 409.925C34.0824 411.056 34.3378 412.169 34.8028 413.2C35.2678 414.231 35.9332 415.159 36.7602 415.931C37.5872 416.702 38.5594 417.302 39.6201 417.694C40.6809 418.086 41.8091 418.264 42.9391 418.216C44.0691 418.169 45.1784 417.897 46.2024 417.417C47.2265 416.937 48.1448 416.258 48.9041 415.42L168.371 287.42C169.433 286.332 170.185 284.981 170.55 283.506C170.915 282.03 170.879 280.484 170.446 279.027C170.013 277.57 169.198 276.256 168.087 275.219C166.976 274.182 165.607 273.461 164.124 273.131ZM356.105 275.781C355.35 274.927 354.431 274.234 353.404 273.741C352.376 273.249 351.261 272.967 350.122 272.912C348.984 272.858 347.847 273.032 346.777 273.424C345.707 273.817 344.726 274.419 343.893 275.197C343.06 275.974 342.391 276.91 341.925 277.95C341.46 278.99 341.207 280.113 341.183 281.252C341.158 282.392 341.362 283.524 341.782 284.583C342.202 285.643 342.83 286.607 343.629 287.42L463.096 415.42C464.652 417.024 466.775 417.954 469.008 418.01C471.242 418.066 473.409 417.243 475.043 415.719C476.677 414.194 477.648 412.09 477.747 409.857C477.845 407.625 477.065 405.443 475.572 403.78L356.105 275.781Z" fill="#9155AD"/>
</svg>
