<svg width="510" height="248" viewBox="0 0 510 248" fill="none" xmlns="http://www.w3.org/2000/svg">
<path d="M500.616 78.9814H275.601V157.247H500.616V78.9814Z" fill="white"/>
<path d="M500.616 157.846H275.601C275.289 157.846 275.029 157.586 275.029 157.274V78.9816C275.029 78.6694 275.289 78.4092 275.601 78.4092H500.616C500.928 78.4092 501.188 78.6694 501.188 78.9816V157.248C501.188 157.586 500.928 157.846 500.616 157.846ZM276.172 156.701H500.044V79.554H276.172V156.701Z" fill="black"/>
<path d="M414.016 95.2705C405.748 95.2705 399.067 102.27 399.067 110.908V150.223H428.991V110.908C428.991 102.27 422.283 95.2705 414.016 95.2705Z" fill="#CADDFF"/>
<path d="M466.506 95.2705C458.238 95.2705 451.557 102.27 451.557 110.908V150.223H481.481V110.908C481.455 102.27 474.773 95.2705 466.506 95.2705Z" fill="#CADDFF"/>
<path d="M496.846 68.7314H279.37L264.993 85.0716H508.597L496.846 68.7314Z" fill="white"/>
<path d="M508.597 85.6441H264.994C264.76 85.6441 264.552 85.514 264.474 85.3059C264.37 85.0977 264.422 84.8636 264.578 84.6814L278.981 68.3413C279.085 68.2112 279.241 68.1592 279.423 68.1592H496.872C497.054 68.1592 497.236 68.2372 497.34 68.3934L509.117 84.7335C509.247 84.9156 509.273 85.1498 509.169 85.3319C509.013 85.514 508.831 85.6441 508.597 85.6441ZM266.267 84.4993H507.506L496.56 69.304H279.631L266.267 84.4993Z" fill="black"/>
<path d="M123.544 157.267L348.559 157.267V79.0006L123.544 79.0006V157.267Z" fill="white"/>
<path d="M348.552 157.846H123.537C123.225 157.846 122.965 157.586 122.965 157.274V78.9816C122.965 78.6694 123.225 78.4092 123.537 78.4092H348.552C348.864 78.4092 349.124 78.6694 349.124 78.9816V157.248C349.124 157.586 348.864 157.846 348.552 157.846ZM124.109 156.701H347.98V79.554H124.109V156.701Z" fill="black"/>
<path d="M210.137 95.2705C218.405 95.2705 225.086 102.27 225.086 110.908V150.223H195.188V110.908C195.188 102.27 201.87 95.2705 210.137 95.2705Z" fill="#CADDFF"/>
<path d="M157.647 95.2705C165.914 95.2705 172.596 102.27 172.596 110.908V150.223H142.698V110.908C142.698 102.27 149.379 95.2705 157.647 95.2705Z" fill="#CADDFF"/>
<path d="M127.333 68.7314H344.782L359.159 85.0716H112.93L127.333 68.7314Z" fill="white"/>
<path d="M359.16 85.6441H112.93C112.696 85.6441 112.488 85.514 112.41 85.3059C112.306 85.0977 112.358 84.8636 112.514 84.6814L126.917 68.3413C127.021 68.2112 127.177 68.1592 127.359 68.1592H344.783C344.938 68.1592 345.094 68.2372 345.224 68.3413L359.628 84.6814C359.783 84.8375 359.81 85.0977 359.732 85.3059C359.602 85.514 359.394 85.6441 359.16 85.6441ZM114.204 84.4993H357.912L344.523 69.304H127.593L114.204 84.4993Z" fill="black"/>
<path d="M382.298 27.0205H241.855V157.273H382.298V27.0205Z" fill="white"/>
<path d="M382.298 157.846H241.855C241.543 157.846 241.283 157.585 241.283 157.273V27.0207C241.283 26.7084 241.543 26.4482 241.855 26.4482H382.298C382.61 26.4482 382.87 26.7084 382.87 27.0207V157.273C382.87 157.585 382.61 157.846 382.298 157.846ZM242.427 156.701H381.726V27.5931H242.427V156.701Z" fill="black"/>
<path d="M396.207 29.3103H227.946L312.077 0.584961L396.207 29.3103Z" fill="white"/>
<path d="M396.207 29.8832H227.946C227.66 29.8832 227.426 29.675 227.374 29.4148C227.322 29.1546 227.478 28.8684 227.764 28.7903L311.895 0.0390289C312.025 -0.0130096 312.155 -0.0130096 312.259 0.0390289L396.389 28.7643C396.649 28.8424 396.805 29.1286 396.779 29.3888C396.727 29.675 396.493 29.8832 396.207 29.8832ZM231.404 28.7383H392.749L312.077 1.18388L231.404 28.7383Z" fill="black"/>
<path d="M270.011 131.201H258.52C258.208 131.201 257.948 130.941 257.948 130.629V78.174C257.948 77.8618 258.208 77.6016 258.52 77.6016H270.011C270.323 77.6016 270.583 77.8618 270.583 78.174V130.629C270.583 130.941 270.323 131.201 270.011 131.201ZM259.092 130.056H269.439V78.7464H259.092V130.056Z" fill="black"/>
<path d="M278.071 140.491H250.461C250.149 140.491 249.889 140.23 249.889 139.918V135.833C249.889 135.521 250.149 135.261 250.461 135.261H253.97V130.785C253.97 130.473 254.23 130.213 254.542 130.213H274.015C274.327 130.213 274.587 130.473 274.587 130.785V135.261H278.097C278.409 135.261 278.669 135.521 278.669 135.833V139.918C278.643 140.23 278.383 140.491 278.071 140.491ZM251.033 139.346H277.525V136.405H274.015C273.703 136.405 273.443 136.145 273.443 135.833V131.358H255.088V135.833C255.088 136.145 254.828 136.405 254.516 136.405H251.007V139.346H251.033Z" fill="black"/>
<path d="M272.923 78.6951H255.608C255.296 78.6951 255.036 78.4349 255.036 78.1227V71.8C255.036 71.4877 255.296 71.2275 255.608 71.2275H272.897C273.209 71.2275 273.469 71.4877 273.469 71.8V78.1227C273.495 78.4349 273.235 78.6951 272.923 78.6951ZM256.18 77.5502H272.325V72.3724H256.18V77.5502Z" fill="black"/>
<path d="M317.822 131.201H306.331C306.019 131.201 305.759 130.941 305.759 130.629V78.174C305.759 77.8618 306.019 77.6016 306.331 77.6016H317.822C318.134 77.6016 318.394 77.8618 318.394 78.174V130.629C318.394 130.941 318.134 131.201 317.822 131.201ZM306.903 130.056H317.25V78.7464H306.903V130.056Z" fill="black"/>
<path d="M325.882 140.491H298.272C297.96 140.491 297.7 140.23 297.7 139.918V135.833C297.7 135.521 297.96 135.261 298.272 135.261H301.781V130.785C301.781 130.473 302.041 130.213 302.353 130.213H321.826C322.138 130.213 322.398 130.473 322.398 130.785V135.261H325.908C326.22 135.261 326.48 135.521 326.48 135.833V139.918C326.454 140.23 326.22 140.491 325.882 140.491ZM298.844 139.346H325.336V136.405H321.826C321.514 136.405 321.254 136.145 321.254 135.833V131.358H302.925V135.833C302.925 136.145 302.665 136.405 302.353 136.405H298.844V139.346Z" fill="black"/>
<path d="M320.734 78.6951H303.446C303.134 78.6951 302.874 78.4349 302.874 78.1227V71.8C302.874 71.4877 303.134 71.2275 303.446 71.2275H320.734C321.046 71.2275 321.306 71.4877 321.306 71.8V78.1227C321.306 78.4349 321.046 78.6951 320.734 78.6951ZM303.991 77.5502H320.136V72.3724H303.991V77.5502Z" fill="black"/>
<path d="M365.633 131.201H354.142C353.83 131.201 353.57 130.941 353.57 130.629V78.174C353.57 77.8618 353.83 77.6016 354.142 77.6016H365.633C365.945 77.6016 366.205 77.8618 366.205 78.174V130.629C366.205 130.941 365.945 131.201 365.633 131.201ZM354.714 130.056H365.061V78.7464H354.714V130.056Z" fill="black"/>
<path d="M373.719 140.491H346.082C345.77 140.491 345.51 140.23 345.51 139.918V135.833C345.51 135.521 345.77 135.261 346.082 135.261H349.592V130.785C349.592 130.473 349.852 130.213 350.164 130.213H369.637C369.949 130.213 370.209 130.473 370.209 130.785V135.261H373.719C374.031 135.261 374.291 135.521 374.291 135.833V139.918C374.291 140.23 374.031 140.491 373.719 140.491ZM346.654 139.346H373.121V136.405H369.611C369.299 136.405 369.039 136.145 369.039 135.833V131.358H350.71V135.833C350.71 136.145 350.45 136.405 350.138 136.405H346.628V139.346H346.654Z" fill="black"/>
<path d="M368.545 78.6951H351.256C350.944 78.6951 350.684 78.4349 350.684 78.1227V71.8C350.684 71.4877 350.944 71.2275 351.256 71.2275H368.545C368.857 71.2275 369.117 71.4877 369.117 71.8V78.1227C369.117 78.4349 368.857 78.6951 368.545 78.6951ZM351.828 77.5502H367.973V72.3724H351.828V77.5502Z" fill="black"/>
<path d="M379.152 147.491H245.001C244.689 147.491 244.429 147.23 244.429 146.918C244.429 146.606 244.689 146.346 245.001 146.346H379.152C379.464 146.346 379.724 146.606 379.724 146.918C379.724 147.23 379.464 147.491 379.152 147.491Z" fill="black"/>
<path d="M368.545 38.8604H255.608V62.9282H368.545V38.8604Z" fill="#CADDFF"/>
<path d="M205.209 110.876H0.487061V232.681H205.209V110.876Z" fill="white"/>
<path d="M205.209 233.166H0.487013C0.221369 233.166 0 232.946 0 232.681V110.876C0 110.611 0.221369 110.391 0.487013 110.391H205.209C205.475 110.391 205.696 110.611 205.696 110.876V232.681C205.696 232.946 205.475 233.166 205.209 233.166ZM0.974025 232.196H204.7V111.361H0.974025V232.196Z" fill="black"/>
<path d="M48.6348 125.145C48.3692 125.145 48.1478 124.925 48.1478 124.66C48.1478 124.396 48.3692 124.175 48.6348 124.175C56.5599 124.175 63.0017 117.735 63.0017 109.84C63.0017 101.944 56.5599 95.5046 48.6348 95.5046C40.7098 95.5046 34.268 101.944 34.268 109.84C34.268 110.104 34.0466 110.325 33.781 110.325C33.5153 110.325 33.2939 110.104 33.2939 109.84C33.2939 101.393 40.1785 94.5342 48.6348 94.5342C57.0912 94.5342 63.9757 101.393 63.9757 109.84C63.9979 118.287 57.1133 125.145 48.6348 125.145Z" fill="black"/>
<path d="M102.848 125.145C102.583 125.145 102.361 124.925 102.361 124.66C102.361 124.396 102.583 124.175 102.848 124.175C110.773 124.175 117.215 117.735 117.215 109.84C117.215 101.944 110.773 95.5046 102.848 95.5046C94.9232 95.5046 88.4814 101.944 88.4814 109.84C88.4814 110.104 88.26 110.325 87.9943 110.325C87.7287 110.325 87.5073 110.104 87.5073 109.84C87.5073 101.393 94.3919 94.5342 102.848 94.5342C111.305 94.5342 118.189 101.393 118.189 109.84C118.189 118.287 111.305 125.145 102.848 125.145Z" fill="black"/>
<path d="M157.04 125.145C156.774 125.145 156.553 124.925 156.553 124.66C156.553 124.396 156.774 124.175 157.04 124.175C164.965 124.175 171.407 117.735 171.407 109.84C171.407 101.944 164.965 95.5046 157.04 95.5046C149.115 95.5046 142.673 101.944 142.673 109.84C142.673 110.104 142.451 110.325 142.186 110.325C141.92 110.325 141.699 110.104 141.699 109.84C141.699 101.393 148.583 94.5342 157.04 94.5342C165.496 94.5342 172.381 101.393 172.381 109.84C172.403 118.287 165.518 125.145 157.04 125.145Z" fill="black"/>
<path d="M55.8293 136.194H22.8452V169.099H55.8293V136.194Z" fill="#CADDFF"/>
<path d="M96.495 136.194H63.511V169.099H96.495V136.194Z" fill="#437FEC"/>
<path d="M137.138 136.194H104.154V169.099H137.138V136.194Z" fill="#CADDFF"/>
<path d="M177.804 136.194H144.82V169.099H177.804V136.194Z" fill="#CADDFF"/>
<path d="M218.469 136.194H185.485V169.099H218.469V136.194Z" fill="#CADDFF"/>
<path d="M55.8293 175.164H22.8452V208.069H55.8293V175.164Z" fill="#CADDFF"/>
<path d="M96.495 175.164H63.511V208.069H96.495V175.164Z" fill="#CADDFF"/>
<path d="M137.138 175.164H104.154V208.069H137.138V175.164Z" fill="#CADDFF"/>
<path d="M177.804 175.164H144.82V208.069H177.804V175.164Z" fill="#CADDFF"/>
<path d="M218.469 175.164H185.485V208.069H218.469V175.164Z" fill="#CADDFF"/>
<path d="M55.8293 214.134H22.8452V247.039H55.8293V214.134Z" fill="#CADDFF"/>
<path d="M96.495 214.134H63.511V247.039H96.495V214.134Z" fill="#CADDFF"/>
<path d="M137.138 214.134H104.154V247.039H137.138V214.134Z" fill="#CADDFF"/>
</svg>
