<svg width="512" height="426" viewBox="0 0 512 426" fill="none" xmlns="http://www.w3.org/2000/svg">
<path d="M18.7342 57.3692H18.2342V57.8692V410.131V410.631H18.7342H493.266H493.766V410.131V57.8692V57.3692H493.266H403.656C401.28 57.3692 399.014 56.569 397.355 55.1637C395.699 53.7606 394.789 51.8771 394.789 49.9346C394.789 47.9922 395.699 46.1087 397.355 44.7055C399.014 43.3003 401.28 42.5 403.656 42.5H502.633C505.009 42.5 507.274 43.3003 508.933 44.7055C510.59 46.1087 511.5 47.9922 511.5 49.9346V418.065C511.5 420.008 510.59 421.891 508.933 423.294C507.274 424.7 505.009 425.5 502.633 425.5H9.36711C6.99106 425.5 4.72569 424.7 3.06674 423.294C1.41029 421.891 0.5 420.008 0.5 418.065V49.9346C0.5 47.9922 1.41029 46.1087 3.06674 44.7055C4.72569 43.3003 6.99106 42.5 9.36711 42.5H108.344C110.72 42.5 112.986 43.3003 114.645 44.7055C116.301 46.1087 117.211 47.9922 117.211 49.9346C117.211 51.8771 116.301 53.7606 114.645 55.1637C112.986 56.569 110.72 57.3692 108.344 57.3692H18.7342Z" fill="#9155AD" stroke="white"/>
<mask id="path-2-inside-1_2909_616" fill="white">
<path d="M326.138 57.5411H293.48C291.375 57.5411 289.356 56.705 287.868 55.2167C286.38 53.7284 285.544 51.7099 285.544 49.6051C285.544 47.5004 286.38 45.4818 287.868 43.9935C289.356 42.5052 291.375 41.6691 293.48 41.6691H326.138C328.242 41.6691 330.261 42.5052 331.749 43.9935C333.238 45.4818 334.074 47.5004 334.074 49.6051C334.074 51.7099 333.238 53.7284 331.749 55.2167C330.261 56.705 328.242 57.5411 326.138 57.5411ZM464.952 128.524H47.0478C44.943 128.524 42.9245 127.688 41.4362 126.2C39.9479 124.711 40.1118 125.693 40.1118 123.588C40.1118 121.483 39.9479 122.465 41.4362 120.977C42.9245 119.488 44.943 118.652 47.0478 118.652H256H464.952C467.057 118.652 469.076 119.488 470.564 120.977C472.052 122.465 471.888 121.483 471.888 123.588C471.888 125.693 472.052 124.711 470.564 126.2C469.076 127.688 467.057 128.524 464.952 128.524ZM117.884 244.995H58.8865C57.8446 244.995 56.8127 244.791 55.8499 244.392C54.8871 243.994 54.0122 243.41 53.2752 242.673C52.5382 241.937 51.9536 241.062 51.5547 240.1C51.1558 239.137 50.9505 238.106 50.9505 237.064V185.019C50.9498 183.977 51.1546 182.944 51.5532 181.981C51.9518 181.018 52.5363 180.143 53.2734 179.406C54.0105 178.669 54.8856 178.084 55.8487 177.686C56.8119 177.287 57.8441 177.082 58.8865 177.083H117.884C119.989 177.083 122.008 177.919 123.496 179.407C124.984 180.896 125.82 182.914 125.82 185.019V237.064C125.82 238.106 125.615 239.137 125.216 240.1C124.817 241.062 124.233 241.937 123.496 242.673C122.759 243.41 121.884 243.994 120.921 244.392C119.958 244.791 118.926 244.995 117.884 244.995ZM66.8225 229.123H109.948V192.955H66.8225V229.123ZM228.502 244.995H169.499C168.456 244.995 167.424 244.79 166.461 244.392C165.498 243.993 164.623 243.409 163.886 242.672C163.149 241.935 162.564 241.059 162.165 240.096C161.767 239.133 161.562 238.101 161.563 237.059V185.019C161.563 182.914 162.399 180.896 163.887 179.407C165.375 177.919 167.394 177.083 169.499 177.083H228.502C230.606 177.083 232.625 177.919 234.113 179.407C235.601 180.896 236.438 182.914 236.438 185.019V237.064C236.438 238.106 236.232 239.137 235.833 240.1C235.434 241.062 234.85 241.937 234.113 242.673C233.376 243.41 232.501 243.994 231.538 244.392C230.575 244.791 229.543 244.995 228.502 244.995ZM177.435 229.123H220.566V192.955H177.435V229.123ZM343.114 244.995H284.116C283.074 244.995 282.041 244.79 281.078 244.392C280.115 243.993 279.24 243.409 278.503 242.672C277.766 241.935 277.181 241.059 276.783 240.096C276.384 239.133 276.179 238.101 276.18 237.059V185.019C276.18 182.914 277.016 180.896 278.504 179.407C279.993 177.919 282.011 177.083 284.116 177.083H343.114C344.156 177.082 345.188 177.287 346.151 177.686C347.115 178.084 347.99 178.669 348.727 179.406C349.464 180.143 350.048 181.018 350.447 181.981C350.846 182.944 351.05 183.977 351.05 185.019V237.064C351.05 238.106 350.844 239.137 350.446 240.1C350.047 241.062 349.462 241.937 348.725 242.673C347.988 243.41 347.113 243.994 346.15 244.392C345.187 244.791 344.156 244.995 343.114 244.995ZM292.052 229.123H335.178V192.955H292.052V229.123ZM117.884 355.228H58.8865C57.8441 355.229 56.8119 355.024 55.8487 354.625C54.8856 354.227 54.0105 353.642 53.2734 352.905C52.5363 352.168 51.9518 351.293 51.5532 350.33C51.1546 349.367 50.9498 348.335 50.9505 347.292V295.258C50.9498 294.215 51.1546 293.183 51.5532 292.22C51.9518 291.257 52.5363 290.382 53.2734 289.645C54.0105 288.907 54.8856 288.323 55.8487 287.924C56.8119 287.526 57.8441 287.321 58.8865 287.322H117.884C119.989 287.322 122.008 288.158 123.496 289.646C124.984 291.134 125.82 293.153 125.82 295.258V347.292C125.821 348.335 125.616 349.367 125.218 350.33C124.819 351.293 124.234 352.168 123.497 352.905C122.76 353.642 121.885 354.227 120.922 354.625C119.959 355.024 118.927 355.229 117.884 355.228ZM66.8225 339.356H109.948V303.194H66.8225V339.356ZM228.502 355.228H169.499C168.456 355.229 167.424 355.024 166.461 354.625C165.498 354.227 164.623 353.642 163.886 352.905C163.149 352.168 162.564 351.293 162.165 350.33C161.767 349.367 161.562 348.335 161.563 347.292V295.258C161.563 293.153 162.399 291.134 163.887 289.646C165.375 288.158 167.394 287.322 169.499 287.322H228.502C230.606 287.322 232.625 288.158 234.113 289.646C235.601 291.134 236.438 293.153 236.438 295.258V347.292C236.438 348.335 236.233 349.367 235.835 350.33C235.436 351.293 234.852 352.168 234.115 352.905C233.378 353.642 232.502 354.227 231.539 354.625C230.576 355.024 229.544 355.229 228.502 355.228ZM177.435 339.356H220.566V303.194H177.435V339.356ZM343.114 355.228H284.116C283.074 355.229 282.041 355.024 281.078 354.625C280.115 354.227 279.24 353.642 278.503 352.905C277.766 352.168 277.181 351.293 276.783 350.33C276.384 349.367 276.179 348.335 276.18 347.292V295.258C276.18 293.153 277.016 291.134 278.504 289.646C279.993 288.158 282.011 287.322 284.116 287.322H343.114C344.156 287.321 345.188 287.526 346.151 287.924C347.115 288.323 347.99 288.907 348.727 289.645C349.464 290.382 350.048 291.257 350.447 292.22C350.846 293.183 351.05 294.215 351.05 295.258V347.292C351.05 348.335 350.846 349.367 350.447 350.33C350.048 351.293 349.464 352.168 348.727 352.905C347.99 353.642 347.115 354.227 346.151 354.625C345.188 355.024 344.156 355.229 343.114 355.228ZM292.052 339.356H335.178V303.194H292.052V339.356ZM150.554 96.151H146.217C140.053 96.1456 134.144 93.695 129.785 89.3371C125.426 84.9792 122.974 79.0699 122.967 72.9062V23.5136C122.974 17.3494 125.426 11.4396 129.784 7.0809C134.143 2.72216 140.053 0.270448 146.217 0.263672H150.554C156.717 0.271803 162.625 2.72412 166.983 7.08271C171.341 11.4413 173.792 17.3503 173.799 23.5136V72.9062C173.792 79.0691 171.341 84.9775 166.983 89.3353C162.625 93.6931 156.717 96.1443 150.554 96.151ZM146.217 16.1357C144.261 16.137 142.385 16.9148 141.002 18.2981C139.618 19.6814 138.841 21.5573 138.839 23.5136V72.9062C138.842 74.8617 139.62 76.7362 141.003 78.1184C142.387 79.5006 144.262 80.2777 146.217 80.279H150.554C152.508 80.2763 154.382 79.4987 155.764 78.1166C157.146 76.7345 157.924 74.8608 157.927 72.9062V23.5136C157.925 21.5582 157.148 19.6831 155.766 18.2999C154.384 16.9167 152.509 16.1384 150.554 16.1357H146.217Z"/>
<path d="M185.48 57.5409H218.138C220.243 57.5409 222.261 56.7048 223.749 55.2165C225.238 53.7283 226.074 51.7097 226.074 49.6049C226.074 47.5002 225.238 45.4816 223.749 43.9934C222.261 42.5051 220.243 41.6689 218.138 41.6689H185.48C183.375 41.6689 181.357 42.5051 179.868 43.9934C178.38 45.4816 177.544 47.5002 177.544 49.6049C177.544 51.7097 178.38 53.7283 179.868 55.2165C181.357 56.7048 183.375 57.5409 185.48 57.5409Z"/>
<path fill-rule="evenodd" clip-rule="evenodd" d="M454.114 244.995H395.116C394.074 244.995 393.042 244.791 392.078 244.392C391.115 243.993 390.24 243.409 389.503 242.672C388.766 241.935 388.181 241.06 387.783 240.096C387.384 239.133 387.179 238.101 387.18 237.059V185.019C387.18 182.914 388.016 180.896 389.505 179.407C390.993 177.919 393.011 177.083 395.116 177.083H454.114C455.156 177.082 456.189 177.287 457.152 177.686C458.115 178.084 458.99 178.669 459.727 179.406C460.464 180.143 461.049 181.018 461.447 181.981C461.846 182.944 462.051 183.977 462.05 185.019V237.064C462.05 238.106 461.845 239.137 461.446 240.1C461.047 241.063 460.462 241.937 459.725 242.674C458.988 243.41 458.113 243.994 457.15 244.392C456.188 244.791 455.156 244.995 454.114 244.995ZM446.178 229.123H403.052V192.955H446.178V229.123Z"/>
<path fill-rule="evenodd" clip-rule="evenodd" d="M454.114 355.228H395.116C394.074 355.229 393.042 355.024 392.078 354.626C391.115 354.227 390.24 353.642 389.503 352.905C388.766 352.168 388.181 351.293 387.783 350.33C387.384 349.367 387.179 348.335 387.18 347.292V295.258C387.18 293.153 388.016 291.134 389.505 289.646C390.993 288.158 393.011 287.322 395.116 287.322H454.114C455.156 287.321 456.189 287.526 457.152 287.924C458.115 288.323 458.99 288.908 459.727 289.645C460.464 290.382 461.049 291.257 461.447 292.22C461.846 293.183 462.051 294.215 462.05 295.258V347.292C462.051 348.335 461.846 349.367 461.447 350.33C461.049 351.293 460.464 352.168 459.727 352.905C458.99 353.642 458.115 354.227 457.152 354.626C456.189 355.024 455.156 355.229 454.114 355.228ZM446.178 339.356H403.052V303.194H446.178V339.356Z"/>
</mask>
<path d="M326.138 57.5411H293.48C291.375 57.5411 289.356 56.705 287.868 55.2167C286.38 53.7284 285.544 51.7099 285.544 49.6051C285.544 47.5004 286.38 45.4818 287.868 43.9935C289.356 42.5052 291.375 41.6691 293.48 41.6691H326.138C328.242 41.6691 330.261 42.5052 331.749 43.9935C333.238 45.4818 334.074 47.5004 334.074 49.6051C334.074 51.7099 333.238 53.7284 331.749 55.2167C330.261 56.705 328.242 57.5411 326.138 57.5411ZM464.952 128.524H47.0478C44.943 128.524 42.9245 127.688 41.4362 126.2C39.9479 124.711 40.1118 125.693 40.1118 123.588C40.1118 121.483 39.9479 122.465 41.4362 120.977C42.9245 119.488 44.943 118.652 47.0478 118.652H256H464.952C467.057 118.652 469.076 119.488 470.564 120.977C472.052 122.465 471.888 121.483 471.888 123.588C471.888 125.693 472.052 124.711 470.564 126.2C469.076 127.688 467.057 128.524 464.952 128.524ZM117.884 244.995H58.8865C57.8446 244.995 56.8127 244.791 55.8499 244.392C54.8871 243.994 54.0122 243.41 53.2752 242.673C52.5382 241.937 51.9536 241.062 51.5547 240.1C51.1558 239.137 50.9505 238.106 50.9505 237.064V185.019C50.9498 183.977 51.1546 182.944 51.5532 181.981C51.9518 181.018 52.5363 180.143 53.2734 179.406C54.0105 178.669 54.8856 178.084 55.8487 177.686C56.8119 177.287 57.8441 177.082 58.8865 177.083H117.884C119.989 177.083 122.008 177.919 123.496 179.407C124.984 180.896 125.82 182.914 125.82 185.019V237.064C125.82 238.106 125.615 239.137 125.216 240.1C124.817 241.062 124.233 241.937 123.496 242.673C122.759 243.41 121.884 243.994 120.921 244.392C119.958 244.791 118.926 244.995 117.884 244.995ZM66.8225 229.123H109.948V192.955H66.8225V229.123ZM228.502 244.995H169.499C168.456 244.995 167.424 244.79 166.461 244.392C165.498 243.993 164.623 243.409 163.886 242.672C163.149 241.935 162.564 241.059 162.165 240.096C161.767 239.133 161.562 238.101 161.563 237.059V185.019C161.563 182.914 162.399 180.896 163.887 179.407C165.375 177.919 167.394 177.083 169.499 177.083H228.502C230.606 177.083 232.625 177.919 234.113 179.407C235.601 180.896 236.438 182.914 236.438 185.019V237.064C236.438 238.106 236.232 239.137 235.833 240.1C235.434 241.062 234.85 241.937 234.113 242.673C233.376 243.41 232.501 243.994 231.538 244.392C230.575 244.791 229.543 244.995 228.502 244.995ZM177.435 229.123H220.566V192.955H177.435V229.123ZM343.114 244.995H284.116C283.074 244.995 282.041 244.79 281.078 244.392C280.115 243.993 279.24 243.409 278.503 242.672C277.766 241.935 277.181 241.059 276.783 240.096C276.384 239.133 276.179 238.101 276.18 237.059V185.019C276.18 182.914 277.016 180.896 278.504 179.407C279.993 177.919 282.011 177.083 284.116 177.083H343.114C344.156 177.082 345.188 177.287 346.151 177.686C347.115 178.084 347.99 178.669 348.727 179.406C349.464 180.143 350.048 181.018 350.447 181.981C350.846 182.944 351.05 183.977 351.05 185.019V237.064C351.05 238.106 350.844 239.137 350.446 240.1C350.047 241.062 349.462 241.937 348.725 242.673C347.988 243.41 347.113 243.994 346.15 244.392C345.187 244.791 344.156 244.995 343.114 244.995ZM292.052 229.123H335.178V192.955H292.052V229.123ZM117.884 355.228H58.8865C57.8441 355.229 56.8119 355.024 55.8487 354.625C54.8856 354.227 54.0105 353.642 53.2734 352.905C52.5363 352.168 51.9518 351.293 51.5532 350.33C51.1546 349.367 50.9498 348.335 50.9505 347.292V295.258C50.9498 294.215 51.1546 293.183 51.5532 292.22C51.9518 291.257 52.5363 290.382 53.2734 289.645C54.0105 288.907 54.8856 288.323 55.8487 287.924C56.8119 287.526 57.8441 287.321 58.8865 287.322H117.884C119.989 287.322 122.008 288.158 123.496 289.646C124.984 291.134 125.82 293.153 125.82 295.258V347.292C125.821 348.335 125.616 349.367 125.218 350.33C124.819 351.293 124.234 352.168 123.497 352.905C122.76 353.642 121.885 354.227 120.922 354.625C119.959 355.024 118.927 355.229 117.884 355.228ZM66.8225 339.356H109.948V303.194H66.8225V339.356ZM228.502 355.228H169.499C168.456 355.229 167.424 355.024 166.461 354.625C165.498 354.227 164.623 353.642 163.886 352.905C163.149 352.168 162.564 351.293 162.165 350.33C161.767 349.367 161.562 348.335 161.563 347.292V295.258C161.563 293.153 162.399 291.134 163.887 289.646C165.375 288.158 167.394 287.322 169.499 287.322H228.502C230.606 287.322 232.625 288.158 234.113 289.646C235.601 291.134 236.438 293.153 236.438 295.258V347.292C236.438 348.335 236.233 349.367 235.835 350.33C235.436 351.293 234.852 352.168 234.115 352.905C233.378 353.642 232.502 354.227 231.539 354.625C230.576 355.024 229.544 355.229 228.502 355.228ZM177.435 339.356H220.566V303.194H177.435V339.356ZM343.114 355.228H284.116C283.074 355.229 282.041 355.024 281.078 354.625C280.115 354.227 279.24 353.642 278.503 352.905C277.766 352.168 277.181 351.293 276.783 350.33C276.384 349.367 276.179 348.335 276.18 347.292V295.258C276.18 293.153 277.016 291.134 278.504 289.646C279.993 288.158 282.011 287.322 284.116 287.322H343.114C344.156 287.321 345.188 287.526 346.151 287.924C347.115 288.323 347.99 288.907 348.727 289.645C349.464 290.382 350.048 291.257 350.447 292.22C350.846 293.183 351.05 294.215 351.05 295.258V347.292C351.05 348.335 350.846 349.367 350.447 350.33C350.048 351.293 349.464 352.168 348.727 352.905C347.99 353.642 347.115 354.227 346.151 354.625C345.188 355.024 344.156 355.229 343.114 355.228ZM292.052 339.356H335.178V303.194H292.052V339.356ZM150.554 96.151H146.217C140.053 96.1456 134.144 93.695 129.785 89.3371C125.426 84.9792 122.974 79.0699 122.967 72.9062V23.5136C122.974 17.3494 125.426 11.4396 129.784 7.0809C134.143 2.72216 140.053 0.270448 146.217 0.263672H150.554C156.717 0.271803 162.625 2.72412 166.983 7.08271C171.341 11.4413 173.792 17.3503 173.799 23.5136V72.9062C173.792 79.0691 171.341 84.9775 166.983 89.3353C162.625 93.6931 156.717 96.1443 150.554 96.151ZM146.217 16.1357C144.261 16.137 142.385 16.9148 141.002 18.2981C139.618 19.6814 138.841 21.5573 138.839 23.5136V72.9062C138.842 74.8617 139.62 76.7362 141.003 78.1184C142.387 79.5006 144.262 80.2777 146.217 80.279H150.554C152.508 80.2763 154.382 79.4987 155.764 78.1166C157.146 76.7345 157.924 74.8608 157.927 72.9062V23.5136C157.925 21.5582 157.148 19.6831 155.766 18.2999C154.384 16.9167 152.509 16.1384 150.554 16.1357H146.217Z" fill="#9155AD"/>
<path d="M185.48 57.5409H218.138C220.243 57.5409 222.261 56.7048 223.749 55.2165C225.238 53.7283 226.074 51.7097 226.074 49.6049C226.074 47.5002 225.238 45.4816 223.749 43.9934C222.261 42.5051 220.243 41.6689 218.138 41.6689H185.48C183.375 41.6689 181.357 42.5051 179.868 43.9934C178.38 45.4816 177.544 47.5002 177.544 49.6049C177.544 51.7097 178.38 53.7283 179.868 55.2165C181.357 56.7048 183.375 57.5409 185.48 57.5409Z" fill="#9155AD"/>
<path fill-rule="evenodd" clip-rule="evenodd" d="M454.114 244.995H395.116C394.074 244.995 393.042 244.791 392.078 244.392C391.115 243.993 390.24 243.409 389.503 242.672C388.766 241.935 388.181 241.06 387.783 240.096C387.384 239.133 387.179 238.101 387.18 237.059V185.019C387.18 182.914 388.016 180.896 389.505 179.407C390.993 177.919 393.011 177.083 395.116 177.083H454.114C455.156 177.082 456.189 177.287 457.152 177.686C458.115 178.084 458.99 178.669 459.727 179.406C460.464 180.143 461.049 181.018 461.447 181.981C461.846 182.944 462.051 183.977 462.05 185.019V237.064C462.05 238.106 461.845 239.137 461.446 240.1C461.047 241.063 460.462 241.937 459.725 242.674C458.988 243.41 458.113 243.994 457.15 244.392C456.188 244.791 455.156 244.995 454.114 244.995ZM446.178 229.123H403.052V192.955H446.178V229.123Z" fill="#9155AD"/>
<path fill-rule="evenodd" clip-rule="evenodd" d="M454.114 355.228H395.116C394.074 355.229 393.042 355.024 392.078 354.626C391.115 354.227 390.24 353.642 389.503 352.905C388.766 352.168 388.181 351.293 387.783 350.33C387.384 349.367 387.179 348.335 387.18 347.292V295.258C387.18 293.153 388.016 291.134 389.505 289.646C390.993 288.158 393.011 287.322 395.116 287.322H454.114C455.156 287.321 456.189 287.526 457.152 287.924C458.115 288.323 458.99 288.908 459.727 289.645C460.464 290.382 461.049 291.257 461.447 292.22C461.846 293.183 462.051 294.215 462.05 295.258V347.292C462.051 348.335 461.846 349.367 461.447 350.33C461.049 351.293 460.464 352.168 459.727 352.905C458.99 353.642 458.115 354.227 457.152 354.626C456.189 355.024 455.156 355.229 454.114 355.228ZM446.178 339.356H403.052V303.194H446.178V339.356Z" fill="#9155AD"/>
<path d="M326.138 57.5411H293.48C291.375 57.5411 289.356 56.705 287.868 55.2167C286.38 53.7284 285.544 51.7099 285.544 49.6051C285.544 47.5004 286.38 45.4818 287.868 43.9935C289.356 42.5052 291.375 41.6691 293.48 41.6691H326.138C328.242 41.6691 330.261 42.5052 331.749 43.9935C333.238 45.4818 334.074 47.5004 334.074 49.6051C334.074 51.7099 333.238 53.7284 331.749 55.2167C330.261 56.705 328.242 57.5411 326.138 57.5411ZM464.952 128.524H47.0478C44.943 128.524 42.9245 127.688 41.4362 126.2C39.9479 124.711 40.1118 125.693 40.1118 123.588C40.1118 121.483 39.9479 122.465 41.4362 120.977C42.9245 119.488 44.943 118.652 47.0478 118.652H256H464.952C467.057 118.652 469.076 119.488 470.564 120.977C472.052 122.465 471.888 121.483 471.888 123.588C471.888 125.693 472.052 124.711 470.564 126.2C469.076 127.688 467.057 128.524 464.952 128.524ZM117.884 244.995H58.8865C57.8446 244.995 56.8127 244.791 55.8499 244.392C54.8871 243.994 54.0122 243.41 53.2752 242.673C52.5382 241.937 51.9536 241.062 51.5547 240.1C51.1558 239.137 50.9505 238.106 50.9505 237.064V185.019C50.9498 183.977 51.1546 182.944 51.5532 181.981C51.9518 181.018 52.5363 180.143 53.2734 179.406C54.0105 178.669 54.8856 178.084 55.8487 177.686C56.8119 177.287 57.8441 177.082 58.8865 177.083H117.884C119.989 177.083 122.008 177.919 123.496 179.407C124.984 180.896 125.82 182.914 125.82 185.019V237.064C125.82 238.106 125.615 239.137 125.216 240.1C124.817 241.062 124.233 241.937 123.496 242.673C122.759 243.41 121.884 243.994 120.921 244.392C119.958 244.791 118.926 244.995 117.884 244.995ZM66.8225 229.123H109.948V192.955H66.8225V229.123ZM228.502 244.995H169.499C168.456 244.995 167.424 244.79 166.461 244.392C165.498 243.993 164.623 243.409 163.886 242.672C163.149 241.935 162.564 241.059 162.165 240.096C161.767 239.133 161.562 238.101 161.563 237.059V185.019C161.563 182.914 162.399 180.896 163.887 179.407C165.375 177.919 167.394 177.083 169.499 177.083H228.502C230.606 177.083 232.625 177.919 234.113 179.407C235.601 180.896 236.438 182.914 236.438 185.019V237.064C236.438 238.106 236.232 239.137 235.833 240.1C235.434 241.062 234.85 241.937 234.113 242.673C233.376 243.41 232.501 243.994 231.538 244.392C230.575 244.791 229.543 244.995 228.502 244.995ZM177.435 229.123H220.566V192.955H177.435V229.123ZM343.114 244.995H284.116C283.074 244.995 282.041 244.79 281.078 244.392C280.115 243.993 279.24 243.409 278.503 242.672C277.766 241.935 277.181 241.059 276.783 240.096C276.384 239.133 276.179 238.101 276.18 237.059V185.019C276.18 182.914 277.016 180.896 278.504 179.407C279.993 177.919 282.011 177.083 284.116 177.083H343.114C344.156 177.082 345.188 177.287 346.151 177.686C347.115 178.084 347.99 178.669 348.727 179.406C349.464 180.143 350.048 181.018 350.447 181.981C350.846 182.944 351.05 183.977 351.05 185.019V237.064C351.05 238.106 350.844 239.137 350.446 240.1C350.047 241.062 349.462 241.937 348.725 242.673C347.988 243.41 347.113 243.994 346.15 244.392C345.187 244.791 344.156 244.995 343.114 244.995ZM292.052 229.123H335.178V192.955H292.052V229.123ZM117.884 355.228H58.8865C57.8441 355.229 56.8119 355.024 55.8487 354.625C54.8856 354.227 54.0105 353.642 53.2734 352.905C52.5363 352.168 51.9518 351.293 51.5532 350.33C51.1546 349.367 50.9498 348.335 50.9505 347.292V295.258C50.9498 294.215 51.1546 293.183 51.5532 292.22C51.9518 291.257 52.5363 290.382 53.2734 289.645C54.0105 288.907 54.8856 288.323 55.8487 287.924C56.8119 287.526 57.8441 287.321 58.8865 287.322H117.884C119.989 287.322 122.008 288.158 123.496 289.646C124.984 291.134 125.82 293.153 125.82 295.258V347.292C125.821 348.335 125.616 349.367 125.218 350.33C124.819 351.293 124.234 352.168 123.497 352.905C122.76 353.642 121.885 354.227 120.922 354.625C119.959 355.024 118.927 355.229 117.884 355.228ZM66.8225 339.356H109.948V303.194H66.8225V339.356ZM228.502 355.228H169.499C168.456 355.229 167.424 355.024 166.461 354.625C165.498 354.227 164.623 353.642 163.886 352.905C163.149 352.168 162.564 351.293 162.165 350.33C161.767 349.367 161.562 348.335 161.563 347.292V295.258C161.563 293.153 162.399 291.134 163.887 289.646C165.375 288.158 167.394 287.322 169.499 287.322H228.502C230.606 287.322 232.625 288.158 234.113 289.646C235.601 291.134 236.438 293.153 236.438 295.258V347.292C236.438 348.335 236.233 349.367 235.835 350.33C235.436 351.293 234.852 352.168 234.115 352.905C233.378 353.642 232.502 354.227 231.539 354.625C230.576 355.024 229.544 355.229 228.502 355.228ZM177.435 339.356H220.566V303.194H177.435V339.356ZM343.114 355.228H284.116C283.074 355.229 282.041 355.024 281.078 354.625C280.115 354.227 279.24 353.642 278.503 352.905C277.766 352.168 277.181 351.293 276.783 350.33C276.384 349.367 276.179 348.335 276.18 347.292V295.258C276.18 293.153 277.016 291.134 278.504 289.646C279.993 288.158 282.011 287.322 284.116 287.322H343.114C344.156 287.321 345.188 287.526 346.151 287.924C347.115 288.323 347.99 288.907 348.727 289.645C349.464 290.382 350.048 291.257 350.447 292.22C350.846 293.183 351.05 294.215 351.05 295.258V347.292C351.05 348.335 350.846 349.367 350.447 350.33C350.048 351.293 349.464 352.168 348.727 352.905C347.99 353.642 347.115 354.227 346.151 354.625C345.188 355.024 344.156 355.229 343.114 355.228ZM292.052 339.356H335.178V303.194H292.052V339.356ZM150.554 96.151H146.217C140.053 96.1456 134.144 93.695 129.785 89.3371C125.426 84.9792 122.974 79.0699 122.967 72.9062V23.5136C122.974 17.3494 125.426 11.4396 129.784 7.0809C134.143 2.72216 140.053 0.270448 146.217 0.263672H150.554C156.717 0.271803 162.625 2.72412 166.983 7.08271C171.341 11.4413 173.792 17.3503 173.799 23.5136V72.9062C173.792 79.0691 171.341 84.9775 166.983 89.3353C162.625 93.6931 156.717 96.1443 150.554 96.151ZM146.217 16.1357C144.261 16.137 142.385 16.9148 141.002 18.2981C139.618 19.6814 138.841 21.5573 138.839 23.5136V72.9062C138.842 74.8617 139.62 76.7362 141.003 78.1184C142.387 79.5006 144.262 80.2777 146.217 80.279H150.554C152.508 80.2763 154.382 79.4987 155.764 78.1166C157.146 76.7345 157.924 74.8608 157.927 72.9062V23.5136C157.925 21.5582 157.148 19.6831 155.766 18.2999C154.384 16.9167 152.509 16.1384 150.554 16.1357H146.217Z" stroke="white" stroke-width="2" mask="url(#path-2-inside-1_2909_616)"/>
<path d="M185.48 57.5409H218.138C220.243 57.5409 222.261 56.7048 223.749 55.2165C225.238 53.7283 226.074 51.7097 226.074 49.6049C226.074 47.5002 225.238 45.4816 223.749 43.9934C222.261 42.5051 220.243 41.6689 218.138 41.6689H185.48C183.375 41.6689 181.357 42.5051 179.868 43.9934C178.38 45.4816 177.544 47.5002 177.544 49.6049C177.544 51.7097 178.38 53.7283 179.868 55.2165C181.357 56.7048 183.375 57.5409 185.48 57.5409Z" stroke="white" stroke-width="2" mask="url(#path-2-inside-1_2909_616)"/>
<path fill-rule="evenodd" clip-rule="evenodd" d="M454.114 244.995H395.116C394.074 244.995 393.042 244.791 392.078 244.392C391.115 243.993 390.24 243.409 389.503 242.672C388.766 241.935 388.181 241.06 387.783 240.096C387.384 239.133 387.179 238.101 387.18 237.059V185.019C387.18 182.914 388.016 180.896 389.505 179.407C390.993 177.919 393.011 177.083 395.116 177.083H454.114C455.156 177.082 456.189 177.287 457.152 177.686C458.115 178.084 458.99 178.669 459.727 179.406C460.464 180.143 461.049 181.018 461.447 181.981C461.846 182.944 462.051 183.977 462.05 185.019V237.064C462.05 238.106 461.845 239.137 461.446 240.1C461.047 241.063 460.462 241.937 459.725 242.674C458.988 243.41 458.113 243.994 457.15 244.392C456.188 244.791 455.156 244.995 454.114 244.995ZM446.178 229.123H403.052V192.955H446.178V229.123Z" stroke="white" stroke-width="2" mask="url(#path-2-inside-1_2909_616)"/>
<path fill-rule="evenodd" clip-rule="evenodd" d="M454.114 355.228H395.116C394.074 355.229 393.042 355.024 392.078 354.626C391.115 354.227 390.24 353.642 389.503 352.905C388.766 352.168 388.181 351.293 387.783 350.33C387.384 349.367 387.179 348.335 387.18 347.292V295.258C387.18 293.153 388.016 291.134 389.505 289.646C390.993 288.158 393.011 287.322 395.116 287.322H454.114C455.156 287.321 456.189 287.526 457.152 287.924C458.115 288.323 458.99 288.908 459.727 289.645C460.464 290.382 461.049 291.257 461.447 292.22C461.846 293.183 462.051 294.215 462.05 295.258V347.292C462.051 348.335 461.846 349.367 461.447 350.33C461.049 351.293 460.464 352.168 459.727 352.905C458.99 353.642 458.115 354.227 457.152 354.626C456.189 355.024 455.156 355.229 454.114 355.228ZM446.178 339.356H403.052V303.194H446.178V339.356Z" stroke="white" stroke-width="2" mask="url(#path-2-inside-1_2909_616)"/>
<path d="M253.829 15.6357L253.829 15.6357C251.741 15.6386 249.739 16.4696 248.263 17.9465C246.788 19.4233 245.958 21.4254 245.956 23.5132V23.5136V72.9062L245.956 72.9069C245.959 74.9939 246.79 76.9945 248.265 78.4702C249.741 79.9458 251.742 80.7761 253.829 80.779H253.829H258.171H258.172C260.259 80.7761 262.259 79.9458 263.735 78.4702C265.211 76.9945 266.041 74.9939 266.044 72.9069V72.9062V23.5136V23.5132C266.042 21.4254 265.213 19.4233 263.737 17.9465C262.261 16.4696 260.26 15.6386 258.172 15.6357H258.171H253.829ZM361.472 15.6357L361.471 15.6357C359.384 15.6386 357.382 16.4696 355.906 17.9465C354.431 19.4233 353.601 21.4254 353.599 23.5132V23.5136V72.9062L353.599 72.9069C353.602 74.9939 354.433 76.9945 355.908 78.4702C357.384 79.9458 359.385 80.7761 361.471 80.779H361.472H365.809H365.809C367.897 80.7776 369.899 79.9479 371.376 78.4721C372.853 76.9962 373.684 74.9948 373.687 72.9069V72.9062L373.687 23.5136L373.687 23.5132C373.685 21.4244 372.855 19.4216 371.378 17.9446C369.901 16.4675 367.898 15.6371 365.809 15.6357H365.809H361.472ZM258.17 95.651H253.83C247.799 95.6444 242.018 93.2459 237.754 88.9818C233.49 84.7177 231.091 78.9363 231.084 72.906V23.5139C231.091 17.4831 233.49 11.7011 237.753 7.43622C242.017 3.17134 247.799 0.771717 253.83 0.763672H258.171C264.201 0.771717 269.983 3.17134 274.247 7.43622C278.511 11.7012 280.909 17.4832 280.916 23.5141V72.9057C280.909 78.9361 278.511 84.7176 274.247 88.9818C269.982 93.2459 264.201 95.6444 258.17 95.651ZM365.783 95.651H361.473C355.442 95.6444 349.661 93.2459 345.397 88.9818C341.133 84.7176 338.734 78.9361 338.727 72.9057V23.5141C338.734 17.4832 341.132 11.7012 345.396 7.43622C349.66 3.17134 355.442 0.771717 361.472 0.763672H365.809C371.84 0.770374 377.623 3.16941 381.888 7.43445C386.153 11.6996 388.552 17.4824 388.559 23.5141V72.9057C388.552 78.9413 386.149 84.7274 381.879 88.9924C377.608 93.2574 371.819 95.6524 365.783 95.651Z" fill="#9155AD" stroke="white"/>
</svg>
