<svg width="204" height="129" viewBox="0 0 204 129" fill="none" xmlns="http://www.w3.org/2000/svg">
<path d="M131.497 113.02C155.521 113.02 174.997 93.54 174.997 69.51C174.997 45.4801 155.521 26 131.497 26C107.472 26 87.9966 45.4801 87.9966 69.51C87.9966 93.54 107.472 113.02 131.497 113.02Z" fill="#333333"/>
<path d="M105.248 92.2851C97.1309 98.3228 86.9621 101.739 76.7214 101.884C75.8395 101.902 75.2995 100.944 75.8035 100.239L77.3873 98.0517C66.5526 100.402 55.43 101.396 44.3433 101.016C42.4716 100.962 40.3478 100.745 39.4839 98.8652C39.214 98.2867 39.142 97.6359 39.214 97.0032C39.3939 95.3582 40.4018 94.0386 41.4097 92.7732C48.0509 84.4577 55.9699 77.1907 63.8529 69.9599L58.4536 70.5564C57.7517 70.6287 57.3197 69.8333 57.7877 69.3091C63.691 62.729 72.9598 56.6913 81.0048 52.7324L105.248 92.2851Z" fill="#437FEC"/>
<path d="M69.9903 72.5268C69.8643 72.5268 69.7383 72.4725 69.6663 72.346C69.5403 72.1652 69.5943 71.9121 69.7743 71.7856L79.2052 65.4586C79.3851 65.3321 79.6371 65.3863 79.7631 65.5671C79.8891 65.7478 79.8351 66.0009 79.6551 66.1275L70.2242 72.4544C70.1343 72.5087 70.0623 72.5268 69.9903 72.5268Z" fill="black"/>
<path d="M52.3705 94.7252C52.2445 94.7252 52.1366 94.671 52.0466 94.5625C51.9206 94.3817 51.9386 94.1467 52.1186 94.0021C61.7294 86.6267 71.8621 79.7031 82.2289 73.4485C82.4088 73.34 82.6608 73.3942 82.7688 73.5931C82.8768 73.7739 82.8228 74.0269 82.6248 74.1354C72.2761 80.372 62.1793 87.2775 52.5865 94.6348C52.5505 94.6891 52.4605 94.7252 52.3705 94.7252Z" fill="black"/>
<path d="M80.069 87.2604C79.925 87.2604 79.799 87.1881 79.727 87.0615C79.6191 86.8627 79.673 86.6277 79.871 86.5192L88.096 81.6926C88.294 81.5842 88.528 81.6384 88.636 81.8372C88.7439 82.0361 88.6899 82.2711 88.492 82.3795L80.267 87.2061C80.213 87.2423 80.141 87.2604 80.069 87.2604Z" fill="black"/>
<path d="M105.248 88.3993L107.479 106.278C107.659 107.669 109.225 108.356 110.359 107.543C118.062 102.011 140.901 83.8981 139.785 64.6279L105.248 88.3993Z" fill="white"/>
<path d="M109.297 108.302C108.991 108.302 108.685 108.248 108.397 108.121C107.677 107.796 107.173 107.145 107.083 106.35L104.852 88.4716C104.834 88.327 104.906 88.1824 105.014 88.092L139.551 64.3206C139.677 64.2483 139.821 64.2302 139.947 64.2845C140.073 64.3387 140.163 64.4833 140.163 64.6098C141.297 84.1873 117.792 102.68 110.575 107.886C110.197 108.158 109.747 108.302 109.297 108.302ZM105.662 88.5981L107.875 106.241C107.947 106.748 108.253 107.181 108.721 107.398C109.189 107.597 109.711 107.543 110.125 107.254C117.18 102.174 139.929 84.2958 139.425 65.3691L105.662 88.5981Z" fill="black"/>
<path d="M83.7763 54.5056L68.6402 44.9609C67.4703 44.2197 67.5063 42.4843 68.6942 41.7974C76.9192 37.0431 102.764 23.7022 119.61 32.795L83.7763 54.5056Z" fill="white"/>
<path d="M83.7762 54.9025C83.7042 54.9025 83.6322 54.8844 83.5602 54.8483L68.4241 45.3036C67.7582 44.8878 67.3622 44.1466 67.3802 43.3512C67.3982 42.5558 67.8122 41.8508 68.4961 41.4531C76.1992 37.0062 102.674 23.1953 119.808 32.4507C119.934 32.523 120.006 32.6496 120.024 32.7942C120.024 32.9388 119.952 33.0654 119.826 33.1377L83.9742 54.8483C83.9202 54.8844 83.8482 54.9025 83.7762 54.9025ZM106.129 30.1007C91.1913 30.1007 74.6873 38.7958 68.892 42.1401C68.4421 42.3931 68.1721 42.8631 68.1721 43.3693C68.1541 43.8935 68.4061 44.3635 68.856 44.6347L83.7762 54.0529L118.8 32.8304C114.93 30.878 110.593 30.1007 106.129 30.1007Z" fill="black"/>
<path d="M104.834 92.6287C106.166 92.6829 107.515 92.3394 108.685 91.5802C126.179 80.5351 198.494 33.0827 203.228 1.17667L203.21 1.1586C172.577 -7.87995 99.6144 38.5782 82.3545 49.9848C80.0328 51.5214 78.8629 54.3414 79.4209 57.0891C82.2825 71.2977 89.5176 82.7044 101.072 91.291C102.188 92.1406 103.502 92.5925 104.834 92.6287Z" fill="white"/>
<path d="M185.176 31.4558C194.859 20.8987 201.86 10.414 203.21 1.1947L203.192 1.17663C194.265 -1.46263 181.756 0.616237 168.06 5.17166C168.06 5.17166 169.212 12.7821 174.323 20.3203C179.867 28.455 185.176 31.4558 185.176 31.4558Z" fill="#437FEC"/>
<path d="M105.068 93.0447C105.032 93.0447 105.014 93.0447 104.978 93.0447C104.762 93.0447 104.582 92.8639 104.582 92.647C104.582 92.4301 104.762 92.2493 104.978 92.2493C104.996 92.2493 105.032 92.2493 105.05 92.2493C106.256 92.2493 107.425 91.9058 108.433 91.2731C120.168 83.8615 160.321 57.6497 184.294 31.6187C184.438 31.456 184.69 31.438 184.852 31.6007C185.014 31.7453 185.014 31.9984 184.87 32.1611C160.861 58.2463 120.636 84.5123 108.883 91.9239C107.749 92.647 106.418 93.0447 105.068 93.0447Z" fill="black"/>
<path d="M79.8349 53.4014C79.7809 53.4014 79.7269 53.3834 79.6729 53.3653C79.4749 53.2749 79.3849 53.0399 79.4749 52.8411C80.0328 51.5395 80.9507 50.4549 82.1206 49.6776C93.6752 42.031 133.99 16.2349 167.376 5.09946C167.592 5.02715 167.808 5.13561 167.88 5.35254C167.952 5.56946 167.844 5.78639 167.628 5.85869C134.332 16.958 94.0891 42.7179 82.5525 50.3464C81.5087 51.0333 80.6988 52.0095 80.1948 53.1664C80.1408 53.3111 79.9968 53.4014 79.8349 53.4014Z" fill="black"/>
<path d="M142.755 57.27C135.826 61.7531 126.593 59.7104 122.166 52.6965C117.72 45.6826 119.754 36.3729 126.683 31.8898C133.612 27.4067 142.845 29.4494 147.273 36.4633C151.718 43.4772 149.684 52.7869 142.755 57.27Z" fill="white"/>
<path d="M134.746 60.0541C133.648 60.0541 132.55 59.9276 131.452 59.6926C127.457 58.8068 124.037 56.4026 121.824 52.9137C117.27 45.7371 119.358 36.1562 126.467 31.5646C129.905 29.3411 133.99 28.6 137.986 29.4858C141.981 30.3715 145.401 32.7758 147.614 36.2647C152.168 43.4413 150.08 53.0221 142.971 57.6137C140.487 59.2226 137.644 60.0541 134.746 60.0541ZM134.692 29.9196C131.956 29.9196 129.257 30.715 126.899 32.2335C120.15 36.5901 118.188 45.6828 122.49 52.4798C124.577 55.7879 127.817 58.0656 131.614 58.8972C135.394 59.7287 139.263 59.0237 142.521 56.9268C149.27 52.5702 151.232 43.4774 146.931 36.6804C144.843 33.3723 141.603 31.0946 137.806 30.2631C136.78 30.0281 135.736 29.9196 134.692 29.9196Z" fill="black"/>
<path d="M140.272 53.3478C135.484 56.439 129.113 55.029 126.035 50.1843C122.976 45.3396 124.361 38.9042 129.167 35.813C133.954 32.7218 140.326 34.1318 143.403 38.9765C146.463 43.8212 145.059 50.2566 140.272 53.3478Z" fill="#437FEC"/>
<path d="M114.535 85.506C114.445 85.506 114.373 85.488 114.301 85.4157C102.188 76.124 93.3691 62.1866 90.0575 47.1826C90.0035 46.9657 90.1475 46.7488 90.3635 46.7126C90.5795 46.6584 90.7954 46.803 90.8314 47.0199C94.089 61.8431 102.818 75.6179 114.769 84.801C114.948 84.9276 114.966 85.1807 114.84 85.3614C114.769 85.4518 114.661 85.506 114.535 85.506Z" fill="black"/>
<path d="M15.7628 128.839C15.6369 128.839 15.4929 128.766 15.4209 128.658C15.3129 128.477 15.3669 128.224 15.5469 128.116L42.1116 111.684C42.2916 111.575 42.5436 111.629 42.6516 111.81C42.7595 111.991 42.7056 112.244 42.5256 112.352L15.9608 128.766C15.9068 128.821 15.8348 128.839 15.7628 128.839Z" fill="#437FEC"/>
<path d="M0.392695 115.117C0.248713 115.117 0.122728 115.045 0.0507372 114.918C-0.0572496 114.72 0.0147416 114.484 0.19472 114.376L23.1419 101.361C23.3399 101.252 23.5739 101.324 23.6819 101.505C23.7898 101.704 23.7178 101.939 23.5379 102.047L0.590671 115.063C0.51868 115.099 0.464687 115.117 0.392695 115.117Z" fill="#437FEC"/>
<path d="M26.1476 86.0495C26.0036 86.0495 25.8776 85.9772 25.8057 85.8507C25.6977 85.6699 25.7517 85.4168 25.9496 85.3084L42.9396 75.3118C43.1195 75.2033 43.3715 75.2575 43.4795 75.4564C43.5875 75.6371 43.5335 75.8902 43.3355 75.9987L26.3456 85.9953C26.2916 86.0315 26.2196 86.0495 26.1476 86.0495Z" fill="#437FEC"/>
<path d="M46.0534 129.001C45.9274 129.001 45.7834 128.929 45.7114 128.82C45.6034 128.639 45.6574 128.386 45.8374 128.278L67.5787 114.847C67.7587 114.738 68.0107 114.792 68.1187 114.973C68.2267 115.154 68.1727 115.407 67.9927 115.516L46.2513 128.947C46.1974 128.983 46.1254 129.001 46.0534 129.001Z" fill="#437FEC"/>
</svg>
