<svg width="137" height="88" viewBox="0 0 137 88" fill="none" xmlns="http://www.w3.org/2000/svg">
<path d="M43.5 87.5103C67.5244 87.5103 87 68.0302 87 44.0003C87 19.9703 67.5244 0.490234 43.5 0.490234C19.4756 0.490234 0 19.9703 0 44.0003C0 68.0302 19.4756 87.5103 43.5 87.5103Z" fill="#333333"/>
<g clip-path="url(#clip0_2427_4282)">
<path d="M55.362 26.5581C55.1962 26.6093 55.0304 26.6733 54.8645 26.7501C53.9334 25.2016 52.7853 23.8322 51.4842 22.6549C51.5863 22.5141 51.6756 22.3605 51.7649 22.2069C52.9001 20.0825 52.0838 17.4334 49.9535 16.3072C47.8233 15.181 45.1828 15.9873 44.0476 18.1245C43.9583 18.2781 43.8945 18.4444 43.8307 18.6108C42.1214 18.1885 40.3484 18.0093 38.537 18.1117C38.5115 17.9453 38.4733 17.7662 38.4095 17.5998C37.7079 15.2962 35.2588 14.0037 32.95 14.7075C30.6539 15.3858 29.3656 17.8301 30.0671 20.1337C30.1182 20.3001 30.1819 20.4665 30.2585 20.6328C28.715 21.5671 27.3374 22.706 26.1639 24.0242C26.0235 23.9218 25.8705 23.8322 25.7174 23.7426C23.5872 22.6165 20.934 23.4227 19.8114 25.5599C18.6762 27.6843 19.4925 30.3334 21.6228 31.4596C21.7758 31.5492 21.9417 31.6132 22.1075 31.6772C21.6865 33.3793 21.508 35.1581 21.61 36.9626C21.4314 36.9882 21.2656 37.0266 21.087 37.0906C18.7782 37.7944 17.4899 40.2388 18.1914 42.5424C18.893 44.8459 21.3421 46.1385 23.6509 45.4346C23.8168 45.3834 23.9826 45.3194 24.1484 45.2426C25.0796 46.7912 26.2276 48.1605 27.5287 49.3379C27.4267 49.4787 27.3374 49.6322 27.2481 49.7858C26.1128 51.9102 26.9292 54.5593 29.0594 55.6855C31.1897 56.8117 33.8301 56.0054 34.9654 53.8682C35.0547 53.7147 35.1185 53.5483 35.1822 53.3819C36.8915 53.8043 38.6646 53.9834 40.4759 53.881C40.5014 54.0474 40.5397 54.2266 40.6035 54.3929C41.3051 56.6965 43.7542 57.9891 46.063 57.2852C48.3718 56.5813 49.6601 54.137 48.9586 51.8334C48.9075 51.6671 48.8438 51.5007 48.7672 51.3343C50.3107 50.4001 51.6883 49.2611 52.8619 47.9429C53.0022 48.0453 53.1553 48.1349 53.3083 48.2245C55.4385 49.3507 58.079 48.5444 59.2143 46.4072C60.3496 44.2828 59.5332 41.6337 57.403 40.5075C57.2499 40.4179 57.0841 40.354 56.9182 40.29C57.3392 38.5879 57.5178 36.809 57.4157 35.0046C57.5943 34.979 57.7601 34.9406 57.9387 34.8766C60.2475 34.1727 61.5359 31.7284 60.8343 29.4248C60.1072 27.1468 57.6581 25.8415 55.362 26.5581ZM41.8791 43.7453C37.5931 45.0635 33.0648 42.6575 31.7509 38.3703C30.4371 34.0959 32.8479 29.5528 37.1211 28.2346C41.4071 26.9165 45.9354 29.3224 47.2493 33.6096C48.5631 37.8968 46.165 42.4272 41.8791 43.7453Z" fill="white"/>
</g>
<path d="M40.2334 76.5569H136.421C136.549 76.5569 136.655 76.4507 136.655 76.3234C136.655 76.196 136.549 76.0899 136.421 76.0899H40.4669V16.4288C40.4669 16.3014 40.3607 16.1953 40.2334 16.1953C40.106 16.1953 39.9999 16.3014 39.9999 16.4288V76.3128C39.9999 76.4507 40.0954 76.5569 40.2334 76.5569Z" fill="black"/>
<path d="M51.7587 72.8643H44.2241L44.2241 32.6232H51.7587L51.7587 72.8643Z" fill="#437FEC"/>
<path d="M63.6298 72.8604H56.0952V51.2435H63.6298V72.8604Z" fill="#437FEC"/>
<path d="M75.4906 72.8613H67.9561V42.8291H75.4906V72.8613Z" fill="#437FEC"/>
<path d="M87.3512 72.8623H79.8167V37.609H87.3512V72.8623Z" fill="#437FEC"/>
<path d="M99.0207 72.8564H91.8682V28.9012H99.0207V72.8564Z" fill="#437FEC"/>
<path d="M111.072 72.8613H103.538V22.9951H111.072V72.8613Z" fill="#437FEC"/>
<path d="M122.933 72.8633H115.398V26.3717H122.933V72.8633Z" fill="#437FEC"/>
<path d="M134.804 72.8584H127.27V19.9572H134.804V72.8584Z" fill="#437FEC"/>
<defs>
<clipPath id="clip0_2427_4282">
<rect width="43" height="43" fill="white" transform="translate(18 14.4902)"/>
</clipPath>
</defs>
</svg>
