<svg width="512" height="512" viewBox="0 0 512 512" fill="none" xmlns="http://www.w3.org/2000/svg">
<path d="M498.565 394.98L394.935 325.87C381.783 317.171 364.155 320.033 354.433 332.448L324.246 371.261C322.369 373.735 319.663 375.449 316.624 376.089C313.585 376.728 310.417 376.25 307.702 374.742L301.96 371.577C282.925 361.201 259.241 348.284 211.521 300.547C163.801 252.81 150.858 229.108 140.482 210.107L137.334 204.365C135.805 201.651 135.309 198.477 135.936 195.426C136.563 192.375 138.271 189.653 140.746 187.762L179.533 157.584C191.943 147.861 194.809 130.237 186.12 117.082L117.01 13.4516C108.104 0.0556326 90.2368 -3.96577 76.4498 4.322L33.1152 30.3531C19.4992 38.3576 9.51003 51.3219 5.2414 66.5288C-10.3633 123.386 1.37596 221.514 145.926 366.081C260.913 481.059 346.516 511.98 405.353 511.98C418.894 512.038 432.382 510.276 445.454 506.741C460.664 502.478 473.63 492.488 481.63 478.868L507.687 435.559C515.987 421.769 511.967 403.891 498.565 394.98ZM492.985 426.804L466.988 470.139C461.243 479.97 451.918 487.198 440.965 490.309C388.475 504.72 296.773 492.784 157.999 354.009C19.2243 215.235 7.28909 123.54 21.6999 71.0431C24.8159 60.0763 32.0523 50.7394 41.8949 44.986L85.2295 18.9888C91.2116 15.3894 98.9665 17.1341 102.831 22.9472L140.372 79.3099L171.882 126.569C175.655 132.275 174.415 139.923 169.032 144.145L130.237 174.323C118.431 183.35 115.059 199.685 122.328 212.649L125.409 218.246C136.313 238.245 149.87 263.125 199.365 312.611C248.859 362.097 273.731 375.655 293.721 386.558L299.326 389.647C312.289 396.915 328.624 393.544 337.652 381.738L367.83 342.943C372.053 337.563 379.698 336.324 385.406 340.093L489.028 409.203C494.845 413.064 496.589 420.823 492.985 426.804ZM290.118 85.377C370.187 85.466 435.074 150.353 435.164 230.422C435.164 235.135 435.983 238.954 440.695 238.954C445.408 238.954 446.227 235.135 446.227 230.422C446.128 140.933 379.608 74.4115 290.118 74.3135C285.406 74.3135 281.586 75.1329 281.586 79.8452C281.586 84.5575 285.406 85.377 290.118 85.377Z" fill="#9155AD"/>
<path d="M290.118 136.569C341.926 136.63 383.91 178.614 383.971 230.422C383.971 232.685 384.87 234.855 386.47 236.455C388.07 238.055 389.24 238.954 391.503 238.954C393.766 238.954 394.936 238.055 396.536 236.455C398.136 234.855 399.035 232.685 399.035 230.422C398.964 169.193 351.346 121.576 290.118 121.506C285.406 121.506 281.586 124.325 281.586 129.038C281.586 133.75 285.406 136.569 290.118 136.569Z" fill="#9155AD"/>
<path d="M290.118 187.762C313.667 187.79 332.75 206.873 332.779 230.422C332.779 232.685 333.678 234.855 335.278 236.455C336.878 238.055 339.048 238.954 341.311 238.954C343.573 238.954 345.743 238.055 347.343 236.455C348.943 234.855 349.842 232.685 349.842 230.422C349.804 197.453 323.087 170.735 290.118 170.698C285.406 170.698 281.586 174.518 281.586 179.23C281.586 183.942 285.406 187.762 290.118 187.762Z" fill="#9155AD"/>
</svg>
